<svg id="Capa_1" data-name="Capa 1" xmlns="http://www.w3.org/2000/svg" viewBox="0 0 402.95 148.59"><defs><style>.cls-1{fill:#002552;}.cls-2{fill:#65ab27;}.cls-3{fill:#49b3ab;}.cls-4{fill:#f4c135;}</style></defs><title>logo-openpark</title><path class="cls-1" d="M41.1,148.59a12,12,0,0,1-2.86-.31,7.38,7.38,0,0,1-6-7c0-1.47,1-12.05,5.19-17l-5,.48,5.13-10.09c.16-.33,4.11-8.08,6.54-12.08,1.65-2.71,4.54-4.28,8.75-5.55a7.16,7.16,0,0,1-1.68-4.6c0-5,4.87-8.06,9.63-10.39a78,78,0,0,1,12.47-4.75,25.19,25.19,0,0,1,9.21-.79,7.68,7.68,0,0,1,.3-5.37A6.86,6.86,0,0,1,87,67.44c2.47-.8,7.38-1.49,40-1.06l7.5.1-1.49,7.35c-2.57,12.67-5.35,27.91-5.35,30.44.18,4.56-3,12.52-9.2,14.81-2,.72-6.74,1.73-11.41-3-2.18,11.18-12.7,17.3-19.66,17.3h-.07a8.89,8.89,0,0,1-5.16-1.52c-5.11,7.54-13.75,11.44-17.9,11.81a7.16,7.16,0,0,1-6.38-2.42A25.19,25.19,0,0,1,41.1,148.59Zm26.84-8.54h0Zm-21.17-7.53a15.81,15.81,0,0,0-.83,2.25,10.11,10.11,0,0,0,4.4-3.91l1.29-2.35,2.59-.69c3.28-.86,9.85-2.59,13.62,1.16a14.42,14.42,0,0,0,5.34-6.52l.56-1.52,1.22-1c1.67-1.45,6.11-5.29,11.09-3.3A7.69,7.69,0,0,1,90,120.1,9.22,9.22,0,0,0,95,113l.14-1.3.64-1.12c.73-1.27,1.3-2.41,1.8-3.42,1.46-2.91,3.27-6.53,7.6-7s7.17,2.76,9.66,5.9a4.87,4.87,0,0,0,.43-1.45c-.14-3.27,2.24-16.22,4.12-25.9-11.7-.1-18.71,0-22.9.13a11.42,11.42,0,0,1,0,5,7.65,7.65,0,0,1-7,6,16.85,16.85,0,0,1-4.83-.49,16.56,16.56,0,0,0-8-.14c-1.91.54-3.83,1.2-5.62,1.89a8.65,8.65,0,0,1,4.79,4.63,7.07,7.07,0,0,1-.57,6.32c-1.88,3.09-5.29,3.81-11.47,5.1-2.54.53-7.64,1.6-9.44,2.5l-.27.47,13.68-1.33L58,120.5C52.71,126.74,49,130.77,46.77,132.52Zm37.72-4.29Zm31.61-20.71Z"/><path class="cls-2" d="M128.51,72.59c-28.67-.37-36.06.12-38,.76S92.83,79,92,82.44s-6.92-1.58-15.48.83S54.19,92,60.68,93.83s12,3.12,10.86,5S53.35,102,51,105.81s-6.31,11.66-6.31,11.66l10-1s-8.49,10.07-10.62,11.41S40,138.22,40,141.15s12.93.77,17.33-7.32c8.13-2.14,9.2-.45,7,2.7s12.29-1.19,16.2-11.94c5-4.32,5.9-1.93,6.23,1.42s14.62-.29,15.93-12.36c4.24-7.4,3.49-10.49,9.41-3s11.06-2.19,10.89-6.24S128.51,72.59,128.51,72.59Z"/><path class="cls-1" d="M62.08,120.93c22.1-24.43,33.77-39.31,54.7-42.34S62.08,120.93,62.08,120.93Z"/><path class="cls-1" d="M328.21,110.08a18.34,18.34,0,0,1-10.32-3.28,5.41,5.41,0,0,1-2.65,2c-4,1.48-11.34.19-14.94-5.79a6.4,6.4,0,0,1-5.91,4.11h0c-4.05,0-7.53-3.91-8.4-6.6-.52-1.42-5.31-9.58-9.44-16.31l-2.4-3.9,4.28-1.63c18.64-7.1,21.61-7.73,23.19-7.79a4.2,4.2,0,0,1,3.16,1.24,4.69,4.69,0,0,1,1.3,3,15.27,15.27,0,0,1,5.44-1.47c12.16-.93,15.15,2.14,15.86,4a4.44,4.44,0,0,1,0,3c2.67-.15,4.67.14,6.18,1.35,2.23,1.78,6.12,5.4,6.29,5.55l5.06,4.72L342,93c3.45,1.95,6.25,7.81,6.54,8.66a4.53,4.53,0,0,1-2,5.28c-2.51,1.68-8.18,2.23-12.75.1a4.39,4.39,0,0,1-3.17,2.74A9.42,9.42,0,0,1,328.21,110.08Zm-12.4-4.9Zm.07-7.59a10.37,10.37,0,0,1,3.63.8l.93.35.64.76a8.89,8.89,0,0,0,4.43,2.62c1.38-3,5.51-3.33,7.57-3.52l1.63-.16,1.23,1.09a6.18,6.18,0,0,0,3.35,1.31,8.66,8.66,0,0,0-1-1.11,63.74,63.74,0,0,1-8.94-4.55l-8.09-4.63,8.12-2.11-.25-.21a36.13,36.13,0,0,0-5.93.55c-3.83.55-5.93.86-7.66-.53a4.3,4.3,0,0,1-1.65-3.5,5.22,5.22,0,0,1,1.77-3.66c-1.17,0-2.41,0-3.62.09A10.17,10.17,0,0,0,307.52,83c-3.57,2.16-6.25,1.92-7.95-.72a7,7,0,0,1-1-2.86c-2.42.79-6.46,2.22-13.16,4.74,3.11,5.15,7.2,12.1,7.82,14a3,3,0,0,0,.53.69c.77-2.32,1.75-4.76,4.3-5.41s4.38,1,5.82,2.4c.5.47,1.07,1,1.75,1.58l.61.51.35.71a5.6,5.6,0,0,0,4.38,3,4.63,4.63,0,0,1,1.51-2.82A4.93,4.93,0,0,1,315.88,97.59Zm-22.55,2.34Zm36.09-11.66Z"/><path class="cls-2" d="M278.88,82.5c16.37-6.23,20.71-7.5,22-7.54s-.16,3.72,1,5.54,3.63-2.36,9.05-2.77,14.66.3,11.32,2.72-6.24,4.31-5.17,5.17,11.09-2,13.23-.32,6.06,5.36,6.06,5.36l-6,1.55s7,4,8.49,4.31,4.56,5,5.14,6.74-7.25,3.16-11.47-.56c-5.12.47-5.37,1.67-3.47,3s-7.29,1.89-11.79-3.45c-3.77-1.43-3.79.13-3.28,2.12s-8.45,2.9-11.73-3.75c-4-3.36-4.2-5.28-6,.29s-6.81,1.06-7.56-1.3S278.88,82.5,278.88,82.5Z"/><path class="cls-1" d="M327.13,96.29c-17.81-9.38-27.62-15.46-40.26-12.81S327.13,96.29,327.13,96.29Z"/><path class="cls-1" d="M32,75.22a6.08,6.08,0,0,1-.61,0l-.88-.08-.45-.06-1-.15-.42-.08-4.67-1-.61-.16-1.18-.35-.15,0-2.23-.73a4.6,4.6,0,0,1-.52-.19l-1.07-.45-.3-.14-1.08-.52a7.69,7.69,0,0,1-.69-.39l-.95-.62L14.94,70l-1-.69a7.67,7.67,0,0,1-.64-.52L12.43,68l-.19-.19-.67-.67L9.72,65.55a5.22,5.22,0,0,1-.43-.39l-.77-.8-.18-.18-.79-.87-.4-.48-.66-.9a6.17,6.17,0,0,1-.55-.88L5.2,59.64l-.15-.32L3.6,56.12a2.44,2.44,0,0,1-.1-.24l-.62-1.51c-.06-.15-.12-.3-.17-.45L1.65,50.59c0-.12-.07-.24-.11-.36l-.42-1.61L1,48.25.56,45.82.5,45.48.33,44.22c0-.11,0-.22,0-.33L.06,41.26c0-.12,0-.24,0-.35l0-1.29v-.33L0,38c0-.12,0-.23,0-.35l.1-1.3,0-.32.16-1.31,0-.21.19-1.17,0-.21.21-1.07L1,30.45a5.1,5.1,0,0,1,.13-.68l.5-2c0-.14.08-.29.13-.43l.39-1.2c0-.14.1-.28.16-.42l.73-1.77c0-.1.09-.2.14-.3l.65-1.45A6.81,6.81,0,0,1,4.52,21l.7-1c.12-.17.26-.34.39-.5l1-1.2.16-.17.79-.85L7.81,17l.81-.78.09-.08,1.86-1.74.18-.16.82-.7.18-.15.89-.7a3.15,3.15,0,0,1,.29-.22l.89-.63c.12-.09.24-.16.35-.23l1.36-.83a3.47,3.47,0,0,1,.37-.21l.92-.48.12-.06,1-.49.39-.18,1-.41.5-.18,3.46-1.1.53-.14,3.38-.8.39-.08,2.19-.37a8.65,8.65,0,0,1,.89-.08l3.56-.14h.53l1.19,0,.38,0,1.18.11.41,0,1,.15,1,.09.48.06,1.13.19.11,0L42.7,7a2.88,2.88,0,0,1,.4.09l1.08.27.26.07L46,7.86l.27.09,1,.35a4.55,4.55,0,0,1,.72.3l2.41,1.18c.16.08.32.16.47.25l1,.57.3.19,1,.65a4.82,4.82,0,0,1,.51.38l2,1.65.22.18.84.73a5.61,5.61,0,0,1,.64.65l1.83,2.13c.11.14.22.27.32.41l.65.9.21.31.48.75.53.75.17.24,1.36,2c.14.2.27.4.39.61l.58,1c.1.17.19.35.28.54l.44,1a6,6,0,0,1,.26.71L66,30.28l.12.48.24,1.11.26,1q.09.35.15.69L67.11,36a6,6,0,0,1,.07.73l0,1.17a.57.57,0,0,0,0,.13l0,1.68V40l0,1.09c0,.13,0,.25,0,.38l-.15,1.88,0,1.34a2.26,2.26,0,0,1,0,.26l0,1.08c0,.12,0,.25,0,.37L67,47.55c0,.13,0,.27,0,.41l-.15,1.11a6.33,6.33,0,0,1-.25,1.11L66,51.76l0,.11-.36,1.06c0,.15-.11.3-.17.44-.48,1.15-1,2.29-1.45,3.44,0,.13-.1.25-.16.37l-.5,1c0,.09-.09.18-.14.27l-.56,1c-.09.16-.17.3-.27.45l-.58.87-.06.09-.91,1.34c-.1.14-.2.28-.31.41l-.64.8c-.11.14-.22.27-.34.4l-.78.82-.07.08-.69.72-.28.27-1.08,1-.18.15-.78.69-.32.25-.92.71-.47.32-.86.55-.15.09-1.25.75a7.39,7.39,0,0,1-.74.38l-.81.35-1.88.93-.1,0-1.06.51-.27.12-1,.43-.1,0-1.08.43-.36.13L43.23,74a7.62,7.62,0,0,1-.82.22l-1.09.22-.42.07L37.37,75l-.43,0-2.24.16-.45,0H32Zm-.15-13,.44,0H34l1.83-.13,3.64-.53.52-.18,1.7-.7,2.89-1.42.28-.13.58-.25,1.39-.85,1.1-.9,1.43-1.4.93-1,1.53-2.4.35-.69,1.29-3.08L54,46.76l.1-1.15,0-.79,0-1.55c0-.22,0-.44,0-.66l.18-2.79-.06-2.19L54,35.9,53.74,35l-.09-.37-.2-1-1.09-3.42-.26-.46-.43-.6c-.07-.09-.12-.17-.18-.26l-1.37-2a3.28,3.28,0,0,1-.2-.31l-1-1.47-1.13-1.32-1.09-.9-.09-.07-1-.85-1.13-.72-1.82-.89-.5-.18-2.29-.61-1.12-.2.27.09,1,.34a5.1,5.1,0,0,1,.73.3l1.9.91a6.58,6.58,0,0,1,.92.55l.83.59a7.79,7.79,0,0,1,.65.52l1.14,1.07a.27.27,0,0,1,.08.07l.77.73.34.35,1.09,1.21c.15.17.3.35.43.53l.65.9q.17.23.3.45l.93,1.53a7.24,7.24,0,0,1,.49,1l.39,1a3.53,3.53,0,0,1,.15.46l.65,2.14a6.82,6.82,0,0,1,.19.78L53,37.38c0,.11,0,.23,0,.34L53.17,39c0,.17,0,.33,0,.5l.06,1.7v1.46c0,.16,0,.32,0,.48l-.15,1.72a6.46,6.46,0,0,1-.16,1l-.28,1.14a2.86,2.86,0,0,1-.07.28l-.48,1.66a7.79,7.79,0,0,1-.31.85l-.48,1.08c-.1.21-.2.41-.32.61l-.73,1.27-.18.3-.57.88-.17.24-.92,1.29a6.73,6.73,0,0,1-.59.71l-.72.75-.37.36-1.33,1.19a7.14,7.14,0,0,1-.89.67l-.88.55a6,6,0,0,1-1.1.55l-1.41.55c-.21.08-.44.16-.66.22l-1,.28-.33.08-1.63.35a6.61,6.61,0,0,1-1,.14l-1.13.07H33.25l-.55,0-1-.09a6.56,6.56,0,0,1-.87-.14l-1.45-.33-.42-.11-1.05-.31-.52-.18-1.13-.45a5.42,5.42,0,0,1-.69-.32l-1-.54a7.25,7.25,0,0,1-.75-.47L22.3,57.83l-.41-.32L21,56.73c-.13-.11-.25-.23-.37-.35l-.46-.45-.18-.2-.87-.94c-.15-.16-.29-.33-.42-.5l-.4-.54c-.06-.07-.11-.15-.16-.22l-.66-1a2.33,2.33,0,0,1-.17-.26L17,51.76a6.42,6.42,0,0,1-.37-.68l-.46-1-.14-.3-.2-.5a.78.78,0,0,1,0-.14l-.41-1.07a6.27,6.27,0,0,1-.26-.84l-.39-1.39a5.49,5.49,0,0,1-.17-.7L14.28,44c0-.11,0-.23,0-.35l-.15-1.11c0-.13,0-.26,0-.39l-.14-2.18c0-.14,0-.29,0-.43V38.44c0-.14,0-.28,0-.41L14,37a6.17,6.17,0,0,1,.17-1.13l.08-.31.15-.92c0-.16.07-.33.11-.49l.41-1.64c0-.11.06-.23.1-.35l.15-.48c0-.17.11-.33.17-.48l.42-1a4.31,4.31,0,0,1,.22-.49l.6-1.2c.11-.2.22-.4.35-.59l.63-1c.13-.19.27-.38.41-.56l1-1.18a8,8,0,0,1,.7-.73l.88-.78a5.72,5.72,0,0,1,.46-.37l1.46-1.07a7.8,7.8,0,0,1,.71-.46l1-.57a5.5,5.5,0,0,1,.6-.28l.49-.21-1.79.61L22.09,22l-1.54,1-1.26,1L17,26.18l-1.4,1.61-.14.3-.46,1-.57,1.38L14,31.67l-.22.87L13.61,34l-.06.35-.37,2.09-.2,2,0,.94.36,4.18.83,3.56,1,3,.31.76,1.74,3.73.66.77.49.5,1.84,1.56.39.36,1.28,1.25,1.19.77,1,.47,3,.92.49.1.13,0Zm1.69-13.3h1.2l.43,0,1.56-.36.46-.18.93-.87,1-1.42.64-1.2.45-1.64.09-1v-.72l-.14-2.19-.3-1.79-.55-1.77-.77-1.2-1.26-1.31-.84-.76-1.34-.61-.66-.11-1.4.07-.46.08-.14,0-1.21.23-1.52.69-1.11.85L28,34.6l-.55,1.23L27.11,37l-.15.9c0,.15-.06.3-.1.46l0,.92.21,2.47.12.64.25.82c0,.13.08.27.11.4l.11.37.58,1.35.64.91,1.27,1.24,1.2.82.54.21Zm11.82-.74h0Z"/><path class="cls-1" d="M68.37,69.49A7,7,0,0,1,67,69.35l-.9-.2a6.36,6.36,0,0,1-2.89-1.46l-.44-.38a6.46,6.46,0,0,1-2-3.29l-.22-.85,0-.15L60.26,62c0-.14-.06-.29-.08-.44L60,60.37c0-.12,0-.24,0-.36l-.77-7.71a3.4,3.4,0,0,1,0-.45L59,47.51l-.61-3.57c0-.15,0-.3-.07-.45l-.11-1.15-1-8.69a.34.34,0,0,0,0-.1l-.11-1.15A3.4,3.4,0,0,1,57,32l-.19-4.45-.56-3.64c0-.11,0-.23,0-.34l-.12-1.15,0-.47-.16-4.26-.32-2a5.58,5.58,0,0,1-.09-.81l0-1.09v-.95c0-.11,0-.21,0-.32l.05-.8a6.89,6.89,0,0,1,.38-1.79l.18-.46a6.32,6.32,0,0,1,1-1.74l.31-.4a6.44,6.44,0,0,1,4-2.38l.75-.13.16,0,2-.3A6.31,6.31,0,0,1,65,4.42l2.26-.1,4.56-.41h.1l4.61-.33H77l4.43,0,4.17-.27L88,3a5.84,5.84,0,0,1,.83,0h.74l.31,0a7.07,7.07,0,0,1,1.3,0l1.06.16.38.06,1.62.34.3.07,1.12.29L96,4l1.14.37c.17.05.33.11.48.17L98.68,5a6.36,6.36,0,0,1,.59.28l1.08.58a6.58,6.58,0,0,1,.63.38l1,.67a3.27,3.27,0,0,1,.37.28l2,1.57a6.22,6.22,0,0,1,.85.77l.19.2,1.12,1c.2.19.39.39.57.59l1,1.11a5.65,5.65,0,0,1,.64.82l.63.91a6.43,6.43,0,0,1,.52.83l.48.89c.11.2.2.41.29.62l.42,1,.1.27.34,1a6.46,6.46,0,0,1,.24.86v0l.2.54c0,.07,0,.14.07.22l.46,1.34.12.38.54,1.94a6.45,6.45,0,0,1,.23,1.3l0,.35.11.84a5.93,5.93,0,0,1,.06.84l0,2.19a6.41,6.41,0,0,1,0,.88l-.33,2.84a6,6,0,0,1-.24,1.18L112.45,36s0,.09,0,.14l-.33,1-.18.49L111.32,39a5.86,5.86,0,0,1-.32.67l-.53.94-.11.19-.84,1.39c-.12.2-.25.39-.38.57l-.67.89-.34.42-.81.9-.19.21-.81.83a6.14,6.14,0,0,1-.45.43l-.81.69-.19.15L104,48a8.23,8.23,0,0,1-.78.53l-2.32,1.36-.27.15-1.09.58-.41.2-1,.44-.36.14-1.43.55-.42.14-1,.3-.44.11-1,.23-.45.09-2.69.44-.52.07L86,53.63l.08,1.11.25,2a5.87,5.87,0,0,1,0,.59l.1,2.54a6.57,6.57,0,0,1,0,.77l-.06.82a6.22,6.22,0,0,1-.36,1.7l-.16.46A6.46,6.46,0,0,1,83,67.11l-.32.18a6.26,6.26,0,0,1-1.28.55l-.71.22a5.67,5.67,0,0,1-.79.19l-2.09.37a5.44,5.44,0,0,1-.8.09l-3,.2-1.87.33a5.39,5.39,0,0,1-.89.1l-2.42.14ZM72.1,51.23,72.58,56l.63-.07-.1-1.08c0-.12,0-.24,0-.36l-.17-4.82v-.11l0-.93a6.62,6.62,0,0,1,.27-2l.16-.52a6.44,6.44,0,0,1,4.46-4.38l-.46-.12-.77-.22a6.51,6.51,0,0,1-4-3.26l-.25-.49a6.53,6.53,0,0,1-.62-1.87L71.6,35c0-.13,0-.27-.06-.4l-.57-5L70.54,27c0-.16-.05-.33-.07-.49l-.15-1.65a6.81,6.81,0,0,1,0-1l.06-.87a6.14,6.14,0,0,1,.27-1.47L70.8,21a6.33,6.33,0,0,1,1.78-2.84l.25-.24a6.69,6.69,0,0,1,2-1.26l-1.88.14-4,.35v0l0,.47.17,4.37.56,3.63c0,.12,0,.23,0,.34l.11,1.16a3.4,3.4,0,0,1,0,.45L70,31.33l.09.88L71.18,42l.61,3.58.06.44L72,47.15a3.44,3.44,0,0,1,0,.46ZM90.64,16.05a6.35,6.35,0,0,1,1.13.41l1.07.5a3.17,3.17,0,0,1,.41.21l.57.31a6.62,6.62,0,0,1,1.38,1l.8.78a7.17,7.17,0,0,1,.68.78l.3.4a6.64,6.64,0,0,1,.51.79l.48.9c.08.14.14.27.21.41l.25.57a6.2,6.2,0,0,1,.34.94l.29,1.05a6.06,6.06,0,0,1,.21,1.19l.14,1.78a5.16,5.16,0,0,1,0,.88l0,.5c0,.21,0,.42-.07.63l-.18,1.15a5.93,5.93,0,0,1-.24,1l-.17.51c0,.16-.11.32-.17.48l-.4,1a4.45,4.45,0,0,1-.25.54l-.24.46a6.27,6.27,0,0,1-.7,1.06l-.61.75a5.72,5.72,0,0,1-.92.92l-.26.22,1.1-.64.93-.77,1-1.13.31-.42.93-1.57.56-1.5.24-.79.23-1.95,0-1.46-.08-.64a2.91,2.91,0,0,1,0-.31l-.31-1.12-.27-.76a1.46,1.46,0,0,0-.07-.19l-.44-1.29a8.84,8.84,0,0,1-.25-.88v-.06l-.47-1.16c-.07-.1-.15-.2-.22-.31l-.26-.4-.16-.18-.48-.56-1-.92-.38-.38-.41-.3-.18-.15L93.9,17.1l-.46-.24-.51-.21-1.51-.43ZM87.22,34.76h0Zm-3.29-6.12v.05l2-.29-.66.05Z"/><path class="cls-1" d="M114.14,65.28l-.61,0-.81-.08a6.34,6.34,0,0,1-2.89-1l-.49-.31a6.52,6.52,0,0,1-2.31-2.6l-.23-.48a6.64,6.64,0,0,1-.47-1.29l-.18-.75c-.05-.2-.09-.39-.12-.59l-.24-1.59a.88.88,0,0,1,0-.16l-.15-1.11a6.81,6.81,0,0,1-.05-.78l-.06-1.71c0-.15,0-.31,0-.46v-3.5l-.06-.88v-.12l-.29-4.34-.6-4.79a4.46,4.46,0,0,1,0-.63l-.13-3.68-.4-5.84c0-.16,0-.31,0-.47v-3.3l-.69-5.52c0-.12,0-.25,0-.37l-.11-1.68c0-.14,0-.28,0-.42l-.06-2.74c0-.12,0-.24,0-.36L103,10V9a6.55,6.55,0,0,1,.26-1.81l.17-.59a6.49,6.49,0,0,1,1.83-2.93l.32-.3a6.5,6.5,0,0,1,3.29-1.61l1.22-.24a7.58,7.58,0,0,1,1.42-.13l4.24.09,3.94-.23h.12l1.09-.05h.44l3.93.13.66,0,3.9-.39.43,0,1.11,0,9.23-.12.84-.07,2.24-.25.57,0L146,.3a6.17,6.17,0,0,1,1.35.12l1,.18a6.55,6.55,0,0,1,2.79,1.26l.41.33a6.41,6.41,0,0,1,2.17,3.08l.16.48a6.69,6.69,0,0,1,.2.77l.18.88a6.39,6.39,0,0,1,.11,1l.08,1.84a4.51,4.51,0,0,1,0,.52l-.05,1.45.16,2.27.1.95a7.56,7.56,0,0,1,0,.83l0,1c0,.22,0,.45,0,.67l-.1.82a6.49,6.49,0,0,1-.69,2.2l-.25.49A6.45,6.45,0,0,1,152.37,23l0,.07.23.4a6.43,6.43,0,0,1,.75,2.29l.26,1.73c0,.13,0,.26,0,.38l.12,1.16c0,.12,0,.24,0,.37l.16,2.47.1.79a6.57,6.57,0,0,1,.05,1l0,2c0,.2,0,.41-.05.61l-.09.83a6.46,6.46,0,0,1-.65,2.15l0,.08a6.42,6.42,0,0,1,1.91,1.76l.28.4a6.55,6.55,0,0,1,1.16,2.94l.09.76a1.23,1.23,0,0,1,0,.19l.37,3.75c0,.25,0,.49,0,.74L157,54.76v.16l0,.68a6.54,6.54,0,0,1-.68,2.57l-.25.49a6.55,6.55,0,0,1-1.4,1.86l-.32.3a6.59,6.59,0,0,1-3.83,1.68c-2.87.24-5.75.5-8.62.77h-.2l-1,.07h-.51l-3,0-.54.07-3.36.49-.1,0L132,64l-.42,0-4.54.32a4.47,4.47,0,0,1-.52,0l-3.18,0-.6,0-5.44.75a6.82,6.82,0,0,1-.79.07l-2.25,0Zm4.23-18.16.07,1c0,.15,0,.37,0,.53v3.29l2.74-.38.39,0,.82-.06a6.53,6.53,0,0,1-1.34-1l-.28-.26a6.47,6.47,0,0,1-1.43-1.93l-.23-.47a6.61,6.61,0,0,1-.58-1.83l-.1-.68a4.5,4.5,0,0,1-.07-.63l-.09-1.53c0-.13,0-.26,0-.4v-1.1c0-.12,0-.24,0-.36l.09-2.47a6.22,6.22,0,0,1,.35-2.05l.17-.5a6.47,6.47,0,0,1,2.43-3.23l.34-.24.21-.14A6.42,6.42,0,0,1,119.52,31l-.3-.35A6.6,6.6,0,0,1,118,28.49l-.16-.47a6.67,6.67,0,0,1-.29-1.17l-.11-.74,0-.21-.14-1.17,0-.38-.07-1.11c0-.18,0-.36,0-.53l0-1.68c0-.2,0-.4,0-.61l.12-1.1a6.44,6.44,0,0,1,1.58-3.6l.31-.35a6.43,6.43,0,0,1,1.43-1.23h-.33l-4.1.24h-.18v.23l.15,3.55.67,5.37a6.2,6.2,0,0,1,.05.86V27.9l.39,5.72a1.69,1.69,0,0,1,0,.23l.12,3.47.7,5.63a4.45,4.45,0,0,1,0,.5Z"/><path class="cls-1" d="M158.09,62.58H158l-1,0c-.25,0-.51,0-.75-.06l-.73-.1a6.46,6.46,0,0,1-2.37-.8l-.55-.32a6.49,6.49,0,0,1-2.3-2.24l-.28-.47a6.65,6.65,0,0,1-.77-1.87l-.16-.68c0-.11,0-.23-.07-.35l-.09-.47a8.65,8.65,0,0,1-.1-.89l0-1v-.37l.06-3-.3-3.21c0-.12,0-.24,0-.36l0-1.08v-.1l-.2-8.31v-.32l.11-5.57-.16-4.25-.39-3.36a3.87,3.87,0,0,1,0-.48l0-1.09v-.48l.12-3.17-.48-4.23s0-.07,0-.1l-.11-1.09c0-.12,0-.25,0-.38l-.06-1.56c0-.14,0-.28,0-.42l0-1a3.83,3.83,0,0,1,0-.47l.09-1c0-.11,0-.21,0-.32l.11-.76a7.3,7.3,0,0,1,.37-1.39L148,4.9a6.5,6.5,0,0,1,3.05-3.4l.41-.21a6.67,6.67,0,0,1,1.74-.61L154,.53l.71-.09,2.07-.17a6.17,6.17,0,0,1,.86,0l1.86.1,5,0,.53,0,.82.06a6.51,6.51,0,0,1,3.43,1.29l.3.23a7,7,0,0,1,1.43,1.45l.13.19,2.6,2.64.24.25.71.81c0,.06.11.12.16.19L178,11.27l.19.23,1.63,2-.28-2.91c0-.18,0-.36,0-.54l0-1.66a6.51,6.51,0,0,1,.15-1.53l.19-.85a6.23,6.23,0,0,1,.53-1.5l.27-.53a6.47,6.47,0,0,1,2.64-2.77L183.7,1a6.42,6.42,0,0,1,2.16-.73l.84-.13a8.4,8.4,0,0,1,1-.07h.44l1,0a5.34,5.34,0,0,1,.8,0l3.61.22,2.15-.09a5.08,5.08,0,0,1,.78,0l2.47.15a8.24,8.24,0,0,1,.85.11l.77.15a6.6,6.6,0,0,1,1.29.39l.5.21a6.52,6.52,0,0,1,2.3,1.66l.41.46a6.45,6.45,0,0,1,1.57,3.33l.14.92,0,.19.07.58c0,.12,0,.24,0,.36L207,9.8a7.85,7.85,0,0,1,0,.84l-.13,2,0,.39-.1.8-.16,3.64a.22.22,0,0,0,0,.08l-.05.84.08,9.36.22,3.65c0,.11,0,.23,0,.34v1.15l.2,9.71a6.79,6.79,0,0,1,0,.78l0,.33-.21,3.85.09,3.55a5.81,5.81,0,0,1,0,.59l-.06.92a6.29,6.29,0,0,1-.31,1.6l-.26.79a6,6,0,0,1-.89,1.75l-.52.73a6.51,6.51,0,0,1-1.5,1.51l-.65.46a6.33,6.33,0,0,1-1.63.85l-.61.22a6.63,6.63,0,0,1-1.53.33l-.93.09h-.22l-4.27.29h-.13l-1.66.1-.26,0-1,0a7.14,7.14,0,0,1-1.46-.12l-.87-.18a6.63,6.63,0,0,1-1.05-.31l-.8-.31a6.69,6.69,0,0,1-1.44-.78l-.8-.58a6.37,6.37,0,0,1-1.47-1.46l-.62-.85a7.56,7.56,0,0,1-.44-.71l-.83-1.53-.24-.33-5-5.92v.36l0,.43.43,2.41c0,.18.05.36.07.53l.1,1.08a6.38,6.38,0,0,1-.1,1.85l-.17.87A6.48,6.48,0,0,1,174.09,59l-.45.49a6.54,6.54,0,0,1-2.71,1.76l-.46.15a6.06,6.06,0,0,1-.7.19l-.8.17-.29.06-.51.08c-.14,0-.29,0-.43.06l-1.11.11a4.53,4.53,0,0,1-.52,0l-3.79.11-2.54.24-.33,0-1,0Zm3.35-16.92.33,3.42c0,.07,0,.15,0,.22l.56,0c0-.16,0-.32,0-.49l.09-3.6-.2-4.55a.49.49,0,0,1,0-.12l0-1.12-.16-3.2s0-.09,0-.14L162,35v-.26l0-3.37a7.2,7.2,0,0,1,.15-1.31l.18-.81A6.46,6.46,0,0,1,166,24.71l.46-.21a6.49,6.49,0,0,1,5.58.09l-1.23-1.52c-.06-.07-.12-.15-.19-.22L167.5,19l-.15-.19-3-3.67-1.84-1.87-2.11,0,.43,4a6.33,6.33,0,0,1,0,.87l-.12,3.37,0,.6.38,3.36c0,.16,0,.32,0,.48l.18,4.69v.4l-.11,5.66Zm23.07-6.49,3.16,3.69a.39.39,0,0,1,.08.1l2.67,3.2.26.34.62.86a5.82,5.82,0,0,1,.44.7l.19.34,1.45-.12h.41l0-.5c0-.18,0-.45,0-.62l.23-4.26c0-.14,0-.28,0-.41v-.85l-.21-9.57-.22-3.64c0-.12,0-.23,0-.35l-.08-9.74c0-.14,0-.28,0-.42l.23-4.7a1.92,1.92,0,0,1-.24,0h-.8c0,.21,0,.42,0,.64l-.19,3.83v.63l.32,3.84c0,.15,0,.29,0,.44l0,1.06c0,.15,0,.31,0,.46l-.13,2.42,0,.29.46,2.46a5.68,5.68,0,0,1,.11,1.09l0,.73a6.48,6.48,0,0,1-2.69,5.35l-.47.34A6.47,6.47,0,0,1,185.72,38l-.54-.06a6.64,6.64,0,0,1-2-.54Zm15.57-22h0Z"/><path class="cls-1" d="M210.71,60.8h-.33l-2.44-.09a6.45,6.45,0,0,1-1.63-.26l-.86-.25a6.35,6.35,0,0,1-2.7-1.57l-.42-.4a6.52,6.52,0,0,1-1.85-3.52l-.14-.78,0-.24-.14-1c0-.15,0-.3,0-.45l-.07-1c0-.14,0-.28,0-.42l0-7a4,4,0,0,1,0-.49l.23-3.23v-.55L200,36.28c0-.16,0-.33,0-.5v-1l-.16-7.82V25.7c0-.17,0-.33,0-.49l.24-3.3V21.3l-.2-3.29c0-.12,0-.24,0-.36V16.59c0-.17,0-.34,0-.51l.24-3.21v-.5L200,10.62a6.61,6.61,0,0,1,0-.89l.06-1c0-.15,0-.3,0-.45l.06-.48.06-.4.13-.69A6.6,6.6,0,0,1,201,5l.22-.43a6.43,6.43,0,0,1,1.29-1.69l.35-.33a6.47,6.47,0,0,1,4-1.75l.76,0h.14l1.92-.08c.23,0,.55,0,.78,0l2.33.12L217.3.8l4.7.14.37,0,4.43.4c1.4,0,2.8.1,4.19.15l2.46,0a4.71,4.71,0,0,1,.75,0l1.08.09a6.7,6.7,0,0,1,1.18.16l1,.23.34.09,1.57.46.28.08,1.08.37.32.11,1.09.43.44.2,1,.49.53.29,1,.63c.2.12.39.26.58.4l.89.68.33.28,1.85,1.61a7,7,0,0,1,.82.81l.35.39.81.8a6.48,6.48,0,0,1,.54.62l.81,1a6.63,6.63,0,0,1,.65.92l.5.82a5.85,5.85,0,0,1,.51.91l.4.86c.1.22.18.44.26.67l.32,1a2.76,2.76,0,0,1,.08.27l.25.92a6.54,6.54,0,0,1,.18.88l.12.44.06.22.32,1.21c0,.15.07.3.1.45l.36,1.79a6.41,6.41,0,0,1,.12,1.45v.26l0,.72a7.23,7.23,0,0,1,0,.93l-.18,1.95a6.2,6.2,0,0,1-.16,1l-.59,2.49a6.33,6.33,0,0,1-.43,1.27l-.57,1.25-.06.12-.43.9c-.08.16-.17.32-.26.47L253,37.07a4.94,4.94,0,0,1-.44.65l-.62.81-.13.15-1,1.18c-.16.18-.32.36-.49.52l-.75.74-.39.35-.89.74-.21.16-.88.68c-.16.12-.33.24-.51.35l-.87.55-.2.12-.94.54a7.61,7.61,0,0,1-.81.4l-2.44,1-.26.11-1.13.42-.42.14-1,.3-.34.09-1.46.35c-.14,0-.28.06-.42.09l-1,.17a2.7,2.7,0,0,1-.41.06l-1,.12-.42,0-2.71.15h-.48l-3.86,0v.34l0,1.81c0,.21,0,.45,0,.67l-.14,2.27a6.13,6.13,0,0,1-.11.86l-.14.74a6.57,6.57,0,0,1-.61,1.76l-.2.39a6.46,6.46,0,0,1-3.36,3l-.33.13a6.66,6.66,0,0,1-1.23.36l-.72.13a4.8,4.8,0,0,1-.75.09l-2.1.15h-.73l-2.41-.1h-.7l-1.91.14ZM213,44v3.7h.64v-.34c0-.14,0-.27,0-.4l.3-4.35a.49.49,0,0,1,0-.12l.07-.82a6.38,6.38,0,0,1,.55-2.13l.19-.42a6.42,6.42,0,0,1,3.07-3.18,6.44,6.44,0,0,1-3-3.19l-.21-.49a6.06,6.06,0,0,1-.51-2.05l-.06-.78c0-.15,0-.29,0-.43l-.08-4.44-.19-2.33c0-.18,0-.37,0-.55V20.17a6.72,6.72,0,0,1,.1-1.1l.14-.8a6.6,6.6,0,0,1,.5-1.56l.21-.45a6.44,6.44,0,0,1,2.06-2.51l-3.69-.05-.23,3.1v.6l.2,3.29c0,.13,0,.26,0,.39v1a3.93,3.93,0,0,1,0,.49l-.24,3.29v.75l.16,8.84.26,3.23c0,.17,0,.33,0,.5v1.05a4,4,0,0,1,0,.49Zm27.73-25.65a3.5,3.5,0,0,1,.29.54l.4.84c.07.16.14.33.2.49l.17.47a8,8,0,0,1,.31,1.06l.19,1a6.2,6.2,0,0,1,.12,1.36l0,1.6a5.33,5.33,0,0,1-.09,1l-.07.45c0,.23-.1.46-.16.69l-.29,1a6.8,6.8,0,0,1-.37,1l-.21.45c-.09.19-.19.37-.29.55l-.48.81c-.11.18-.22.35-.34.52l-.23.31.93-.75.32-.32,1-1.25.37-.61.54-1.14.36-1.54.11-1.15,0-.47a1.85,1.85,0,0,1,0-.23l-.36-1.56c0-.06,0-.13-.05-.2L242.71,22a6.66,6.66,0,0,1-.18-.91l-.25-.8-.19-.3-.17-.3-.16-.2-.4-.52ZM229.59,30.55h0Z"/><path class="cls-1" d="M295.93,62.63h-.32l-.92,0-.52,0L292,62.27l-2.58-.12-3.91.06a6.53,6.53,0,0,1-2.15-.33l-.86-.28a6.44,6.44,0,0,1-3.17-2.31l-.39-.53a6.3,6.3,0,0,1-.73-1.29l-.29-.69a4.13,4.13,0,0,1-.17-.45L277,54.27l-1.24-.13-.85,0h-.17l-5-.32-3.92-.2-.69,0-.8,0h-.28c-.16.39-.31.78-.47,1.18a1.8,1.8,0,0,1-.08.21l-.44,1a6.33,6.33,0,0,1-1.22,1.85l-.76.8a6.51,6.51,0,0,1-2.55,1.67l-1,.35a6.46,6.46,0,0,1-2.72.36l-1-.09-3.59-.24h-.69l-3.9.18-.8,0a6.53,6.53,0,0,1-3.28-.68l-.78-.39a6.4,6.4,0,0,1-2.34-2l-.52-.72a6.51,6.51,0,0,1-1.21-4.44l.08-.81a7.3,7.3,0,0,1,.22-1.15l.15-.51a7,7,0,0,1,.25-.73l.42-1c.06-.14.12-.27.19-.4l1.27-2.65.12-.24,1.74-3.5.41-.85.08-.16,1.77-3.38.35-.78.06-.13,2-4.2.21-.4,1.86-3.37.36-.74,2.64-5.15.07-.15,2-3.63.46-.91.15-.26,2-3.45,1.77-3.6c0-.07.07-.15.11-.22l1.74-3.25a6.42,6.42,0,0,1,2.88-2.72l.7-.34a6.31,6.31,0,0,1,2-.59l1-.12a5.74,5.74,0,0,1,.92,0l3.17.08h.26l5.36.36h.12L278.8,4a8.68,8.68,0,0,1,.89.14l1.15.27a6.44,6.44,0,0,1,2.41,1.13l.75.56A6.49,6.49,0,0,1,286.19,9l.3.83c0,.05,0,.1.05.15l1,2.86,1.39,2.7c.09.17.16.34.24.52l.34.83L290.82,20a.61.61,0,0,0,.05.12l.36.89.15.41L292.61,25l1.29,3,.08.18.33.81,1.29,3a.69.69,0,0,1,0,.13l.36.89a.69.69,0,0,0,.05.13l1.39,3.69,3.63,7.6.15.36,1.57,3.95a.88.88,0,0,1,.05.15L304,52.07a7.66,7.66,0,0,1,.3,1.14l.15.87a6.49,6.49,0,0,1-1.32,5.11l-.49.62a6.44,6.44,0,0,1-2.91,2.1l-.75.26a6.39,6.39,0,0,1-1.6.36l-.87.07ZM280.26,41.58l1.57.18a5.89,5.89,0,0,1,.82.15l.59.15a6.53,6.53,0,0,1,3.27,2l-.86-1.81-.15-.36-.36-.88-.06-.15L283.64,37,283,35.6a6.58,6.58,0,0,1-.43,2.55l-.22.58a6.57,6.57,0,0,1-1.91,2.68Zm-24.73.4-.38.83a6.41,6.41,0,0,1,1.45-1.09l.55-.3a6.69,6.69,0,0,1,2.39-.76l.87-.09a5.79,5.79,0,0,1,.72,0,6.47,6.47,0,0,1-1.62-3l-.17-.74a6.78,6.78,0,0,1-.14-2l-1.68,3-.33.72-.06.14Zm16.18-24a6.45,6.45,0,0,1,1.7.22l.88.24a6.69,6.69,0,0,1,2,1l-.49-.94a4.88,4.88,0,0,1-.29-.66l-.37-1a1.46,1.46,0,0,1-.07-.19l-.55-.05-5.11-.34H269l-.4.81-1,2.05a6.62,6.62,0,0,1,2.18-.86l.76-.14A6.41,6.41,0,0,1,271.71,18Z"/><path class="cls-1" d="M345.11,65.7l-.55,0L340,65.29h-.1l-4.45-.42-2.85-.11h-.26l-.85-.06a6.86,6.86,0,0,1-2.38-.65l-.55-.27a6.45,6.45,0,0,1-1.86-1.37l-.48-.5a6.43,6.43,0,0,1-.69-.87l-3.21-4.69-.07.48c0,.25-.09.49-.15.73l-.2.74a6.45,6.45,0,0,1-2.23,3.39l-.35.28a6.52,6.52,0,0,1-2.87,1.3l-.74.13a6.82,6.82,0,0,1-1.56.09L313,63.42l-.37,0-2.78-.33h-2.67l-.39,0L305.77,63l-.38,0-3-.35-.57-.09-.79-.17a6.41,6.41,0,0,1-2.39-1l-.38-.27a6.45,6.45,0,0,1-2.7-4.34l-.09-.61a6.4,6.4,0,0,1-.08-.87l0-1.84a7,7,0,0,1,.08-1l.84-6,0-3.09v-.87c0-.12,0-.24,0-.36l.15-3.22v-.13l.07-1c0-.13,0-.26,0-.39l.43-3.64V30.59c0-.13,0-.26,0-.4l.06-1c0-.13,0-.26,0-.39l.44-3.84,0-.27.38-3.83.15-3.21a.66.66,0,0,1,0-.14l.05-.76V15a6.54,6.54,0,0,1,.06-.89l.12-.91c0-.23.08-.47.14-.69l.09-.37c0-.15.09-.31.14-.46l.25-.75a6.38,6.38,0,0,1,1.55-2.53l.45-.45a6.54,6.54,0,0,1,3.76-1.86l.83-.1c.23,0,.46-.05.7-.06h.9l1,0c.21,0,.41,0,.62,0l3.07.41,7.83,1,4.42.22.33,0,1.09.11.35,0,4.33.69,2.43.26.32,0,1.16.19a6.33,6.33,0,0,1,.78.17l1,.29.42.14,1.41.51.24.09,1,.41.31.14,1.94.89.39.19,1,.52.61.37.84.58.2.14,1.23.91.43.34.69.61.43.42.62.66q.19.21.39.45l.62.79c.11.14.21.28.31.43l1.4,2.16.13.21.71,1.21a4.71,4.71,0,0,1,.33.63l.4.87c0,.06.05.12.07.17l.39.93a7,7,0,0,1,.29.88l.25,1a8.65,8.65,0,0,1,.16.86l.11,1a5.79,5.79,0,0,1,0,.93l0,.82v1.18q0,.35,0,.69l-.09.93c0,.17,0,.33-.07.49l-.16.92c0,.13,0,.26-.08.38l-.23,1a3.6,3.6,0,0,1-.12.44l-.29,1a4.84,4.84,0,0,1-.18.49l-.35.9a7.16,7.16,0,0,1-.43.88l-.49.83c-.07.12-.14.22-.21.33l-.55.83a6.7,6.7,0,0,1-.45.6l-.68.8q-.13.16-.3.33l-.67.69-.18.18-.67.64-.2.18-.66.58a5.3,5.3,0,0,1-.52.42l-.57.41,1,1.34.28.38,2.43,3.52,1.79,2.2.09.12.54.7a6.86,6.86,0,0,1,.89,1.56l.26.66a6.49,6.49,0,0,1-.54,5.87l-.31.49a6.48,6.48,0,0,1-4.34,2.92l-.89.16A6.2,6.2,0,0,1,345.11,65.7Zm.89-6.63h0ZM309.24,42.45v.8l0,3.38c0,.13,0,.26,0,.39l-.06,1a4.6,4.6,0,0,1-.06.52l-.23,1.59h.71V47.2a5.53,5.53,0,0,1,0-.71L310,43.2a6.05,6.05,0,0,1,.3-1.34l.26-.76a6.48,6.48,0,0,1,2.35-3.17,6.52,6.52,0,0,1-1.56-2.68l-.1-.37a6.39,6.39,0,0,1-.26-1.67l0-.64a7.25,7.25,0,0,1,0-.93l.35-3.39-.11-1.75c0-.19,0-.39,0-.59l0-1.38a6.64,6.64,0,0,1,.1-1l.12-.63a6.41,6.41,0,0,1,1.65-3.28q-1.08-.15-2.16-.27l-.1,2.19v.13l-.07,1a2.45,2.45,0,0,1,0,.27l-.39,3.9c0,.13,0,.27,0,.4L310,30.85v3.09c0,.13,0,.27,0,.4l-.06,1c0,.13,0,.26,0,.4l-.44,3.77Zm18.52-1.34,1.1,1.55a6.37,6.37,0,0,1,.21-1.62l-.77.06Zm11.29-14.59.15.75a6,6,0,0,1,.13,1l.05,1a2.54,2.54,0,0,1,0,.39v1a7.3,7.3,0,0,1-.09.94l-.15.94a6,6,0,0,1-.34,1.24l-.09.26.77-.89.4-.71.3-1.09.12-.85V28.92l0-.16-.38-.88Z"/><path class="cls-1" d="M391.65,70.67a6.34,6.34,0,0,1-.76,0l-.86-.1-.4-.07-4.18-.69-4.22-.54-.84-.09-4.1-.29a5.51,5.51,0,0,1-.71-.08l-.79-.14a6.41,6.41,0,0,1-3-1.42l-.56-.47a6.2,6.2,0,0,1-.81-.81l-2-2.46a1.56,1.56,0,0,1-.16-.2,6.48,6.48,0,0,1-2.72,2.91l-.38.21a6.54,6.54,0,0,1-2.8.79l-.82,0c-.19,0-.38,0-.57,0l-2.05-.08-.36,0-2-.19-.48-.07-2.6-.44-.59,0-3.26-.06a6.49,6.49,0,0,1-2.42-.52l-.51-.22a6.42,6.42,0,0,1-3-2.58l-.23-.37a6.49,6.49,0,0,1-.95-3.2l0-.53v-.34l0-.82,0-.49.1-.93,0-.3.22-1.44a.59.59,0,0,1,0-.14l.09-.5,0-2.67a5.21,5.21,0,0,1,0-.55l.42-4.07c0-.16,0-.32.06-.47l.81-4.78.45-4.82.11-1.89c0-.1,0-.2,0-.3l.1-.92,0-.27.52-3.78.59-7.16s0-.07,0-.11l.09-.95c0-.14,0-.27.06-.41l.52-3.11a2.07,2.07,0,0,0,0-.22l.14-.66a6.47,6.47,0,0,1,1.46-3l.23-.26a6.45,6.45,0,0,1,4.61-2.23l.71,0a6.26,6.26,0,0,1,1.43.1l1,.18.18,0,2.44.47,2.93.15.47,0,1.1.14c.11,0,.23,0,.34.06l3.13.58.15,0,.72.15a6.54,6.54,0,0,1,2.3,1l.31.21a6.48,6.48,0,0,1,2.57,3.43l.14.47,2.41-1.76.34-.23.62-.39a6.49,6.49,0,0,1,3.28-1l.69,0a6.1,6.1,0,0,1,.74,0l3.16.29.35,0,1.09.16a2.14,2.14,0,0,1,.35.06l4,.82,3.36.55,2.53.33.61.11.74.17A6.56,6.56,0,0,1,400.34,19l.3.26c.18.17.36.34.53.52l.17.2a6.48,6.48,0,0,1,.75,7.5l-.09.16a6.52,6.52,0,0,1-2,2.12l-.61.42L396.64,32l-.53.4-2.57,2.12-.23.18-.75.56-.24.17-2.8,2-.65.49-2.8,2.14-.74.57-1.89,1.5,1.63,1.77c.13.14.25.29.37.44l.57.74.07.09,2.72,3.63,2.32,2.84c.05,0,.09.11.14.17l.44.57,2.37,2.7c.1.11.2.23.29.35l.39.52,2.38,2.59a6.32,6.32,0,0,1,1.07,1.57l.26.54a6.48,6.48,0,0,1-1.1,7.22l-.12.15a6.51,6.51,0,0,1-3,2.14l-.49.17A6.43,6.43,0,0,1,391.65,70.67Zm-35.76-17,.82.14L357,52l.43-3.81a6.51,6.51,0,0,1,.23-1.15l.22-.73a6.48,6.48,0,0,1,3.62-4.07l.43-.19a6.48,6.48,0,0,1,5.48.15l.43.21.35.19-.07-.27a6.43,6.43,0,0,1,.18-3.86,6.52,6.52,0,0,1-4.05,0l-.54-.19a6.49,6.49,0,0,1-4.33-5.48l-.06-.65a6.32,6.32,0,0,1,0-1.23l.27-3c0-.05,0-.11,0-.16l.08-.69.08-1.85-.88,0-.46,5.51a.62.62,0,0,0,0,.13l-.1.93,0,.27-.51,3.7-.18,3c0,.09,0,.18,0,.28L357.16,43a3.47,3.47,0,0,1-.06.45l-.81,4.8-.37,3.56Z"/><path class="cls-3" d="M58.71,39.86l0,1.16c0,.56,0,1.12,0,1.68,0,.37,0,.74,0,1.11-.05.73-.11,1.47-.17,2.21,0,.56,0,1.12,0,1.69,0,.36,0,.73,0,1.1s0,.79-.08,1.18l-.15,1.12c-.16.53-.33,1.06-.5,1.6-.12.35-.23.71-.35,1.07l-1.44,3.47c-.16.34-.32.68-.49,1s-.37.68-.56,1l-.57.88-.91,1.37-.65.81-.77.84-.72.76-1.08,1-.79.69-.92.71-.86.56-1.25.76-.95.42-2,1-1.07.52-1,.44-1.08.45-1.08.37-1.11.23-3.53.5-2.24.17-2.19,0-.94-.09-1-.15-3.71-.81-1.09-.22-1.19-.36-2.23-.72L19,69,18,68.5,17,67.88l-1-.69c-.31-.28-.62-.56-.92-.85s-.57-.57-.86-.86l-2.06-1.75-.78-.79-.79-.87-.67-.9-.73-1.41L7.77,56.54c-.21-.51-.41-1-.62-1.51l-.36-1.1c-.12-.39-.24-.78-.37-1.17l-.36-1.09c-.14-.54-.28-1.08-.43-1.62-.07-.37-.15-.74-.23-1.12l-.24-1.26L5,46.4l-.12-1.28-.12-1.36c0-.43,0-.86,0-1.29s0-.87,0-1.3l.09-1.31L5,38.54l.18-1.17c.08-.42.15-.83.23-1.25.08-.6.15-1.19.23-1.79l.3-1.25.18-.71c.13-.4.25-.8.38-1.19l.72-1.77.53-1.13c.08-.21.17-.42.25-.64l.69-1c.34-.4.67-.8,1-1.19l.78-.85.79-.78,1.83-1.73.81-.7.87-.71.88-.63L17,19.23l.9-.48,1-.48,1-.41,2.52-.81,1-.32,3.35-.81,2.16-.37,2.07-.07,1.65-.09,1.18,0,1.18.11,1.19.18,1.19.1,1.12.19,1.06.2,1.07.27,1.5.44,1,.35,2.4,1.18,1,.57,1,.65,1.28,1.05.83.66.83.74.71.81,1.1,1.29c.21.3.43.6.65.89l.57.9.64.9.9,1.38.64.89.59,1,.45,1,.51,1.64L57.71,35,58,36.19l.33,1.21C58.44,38.22,58.57,39,58.71,39.86ZM43.49,51.14,44,50l.48-1.69.27-1.14c0-.58.09-1.15.14-1.72V44.37c0-.59,0-1.18-.07-1.77,0-.41-.09-.83-.14-1.24l-.21-1.24c-.07-.38-.13-.77-.2-1.16l-.66-2.15c-.12-.33-.25-.66-.38-1l-.93-1.53-.65-.9-1.09-1.21-.77-.74-1.15-1.06-.82-.58-1.89-.92-1-.33-1.12-.25-1.11-.1-2.18.09-1,.18L28,28.72l-1,.33-1.69.72-1,.57-1.44,1.07-.86.78-.94,1.17-.62,1-.6,1.2c-.13.35-.27.69-.41,1-.05.15-.09.31-.14.46-.13.55-.27,1.09-.4,1.64-.06.39-.12.77-.19,1.16,0,.18-.08.36-.13.54l-.06,1.07v1c0,.35.05.7.07,1l.09,1.13.15,1.11c.07.39.14.79.22,1.18s.24.78.35,1.16c.06.22.11.44.16.66L20,49.87l.2.5c.15.34.31.67.47,1l.34.56.67,1,.41.55.86.94.47.46.91.79L25.8,56.7l1,.54,1.13.45L29,58l1.45.33,1,.09h1.68l1.13-.07L35.9,58l1-.28,1.41-.56.87-.56,1.34-1.21.71-.76.93-1.31.56-.88Z"/><path class="cls-3" d="M104.65,29.17c0,.35.1.7.14,1s0,.71,0,1.06,0,.8,0,1.2c-.07.59-.14,1.19-.2,1.78l-.12,1.14c-.15.48-.29,1-.43,1.44l-.33,1-.57,1.38-.54,1-.83,1.41-.67.9-.81.92-.8.84-.82.7-.88.72-1.41.82-1,.58-1.09.59-1,.44L92,48.67,91,49l-1,.22-1.06.17-1.71.3-5.58.52-1.13,0-1.13.18-1.11.25-.78.23-.16.52,0,.94c.07,1.61.13,3.22.19,4.83,0,.38.07.76.11,1.14.09.72.18,1.44.26,2.15l0,1.08c0,.53.05,1.06.08,1.59,0,.27,0,.53-.05.8s-.11.3-.16.45l-.32.18-.71.22-2.08.38-2.58.14-1,.12L69,65.8l-1.06,0-1.52.1-.88-.19-.44-.39-.22-.85-.24-1.07c-.06-.38-.13-.77-.19-1.15-.26-2.58-.53-5.16-.79-7.74-.05-1.29-.09-2.58-.14-3.86l-.12-1.16c-.21-1.27-.43-2.54-.65-3.8l-.12-1.16-1-8.82-.12-1.15c0-1.31-.09-2.63-.13-3.94l-.12-1.15-.6-3.82-.12-1.16-.12-3.86c0-.36-.07-.72-.11-1.08l-.36-2.16c0-.36,0-.72,0-1.09v-.58l.06-.81.16-.45.3-.39.74-.13,2-.3,1.58-.06,1-.08,4.57-.41c1.52-.12,3-.23,4.57-.33l4.6,0,4.51-.3,2.58-.3h1l.55,0,1,.15,1.61.34,1.12.29,1.12.36,1.07.43,1.07.58L96,15,97.33,16l.87.66c.12.13.25.26.37.4l1.32,1.2.75.87.37.41.54.82.3.4.48.89.42,1,.34,1,.1.49c.12.32.23.64.35,1l.18.55c.11.32.22.65.34,1,.18.65.36,1.3.55,1.95ZM85.1,37.57l1.2-.24L87.41,37l.52-.26.89-.64.38-.31.61-.77.24-.45.39-1,.16-.52c.06-.38.12-.77.17-1.15l0-.51-.15-1.77c-.09-.35-.19-.7-.29-1.05L90.12,28c-.17-.29-.33-.59-.49-.89l-.31-.41-.81-.8-.57-.31-1.06-.5-1.8-.37L84,24.67l-1.56.11-2,.3h-3l-1,.08-.53.11-.73.21-.25.23c0,.18-.1.35-.16.52l0,.87.15,1.65.45,2.64.18,1.14.45,4.15.15.86.25.48.76.22h3.52Z"/><path class="cls-3" d="M148.32,52.5l0,1.1c0,1.23-.07,2.46-.11,3.7l0,.69c-.08.16-.16.33-.25.49l-.31.29-8.62.79-1.06.07-3.5-.05-1,.13-3.41.52-1.05.14-4.55.33-3.44,0-1,.08-5.64.8-2.24,0-.8-.07-.49-.32-.23-.47c-.06-.26-.13-.51-.19-.76l-.24-1.6-.15-1.12c0-.36,0-.71,0-1.06s0-.7-.07-1.06V51.41l-.08-1.13c-.07-1.24-.13-2.48-.2-3.72,0-.37-.09-.75-.14-1.12-.16-1.23-.31-2.47-.47-3.7l-.14-1.12c0-1.27-.09-2.54-.14-3.8l-.42-6V27.11c0-.37-.09-.74-.14-1.11-.16-1.24-.31-2.47-.47-3.71,0-.37-.09-.75-.14-1.12l-.12-1.68c0-.71,0-1.41,0-2.12,0-.35,0-.7-.07-1.05l-.06-3.66v-1c.06-.19.11-.38.17-.58l.32-.29.54-.1.88-.18c1.49,0,3,.05,4.46.09l4.17-.25,1.09,0,4.12.12,1.09,0,4.09-.42,1.09,0q4.65-.09,9.31-.13l1.15-.1L142,9.48l1.71,0,1,.18.43.34.16.47c.06.3.11.59.17.89l.09,1.84c0,.58-.05,1.15-.07,1.72,0,.38,0,.77.05,1.16l.15,1.71c0,.34.08.68.11,1s0,.69,0,1-.07.55-.1.82l-.25.49-.33.28-.8.16-.55,0-1.08.1-6.37.07-1.09,0-3.45.27-1.08,0h-3.53L124.05,22l-1,0-.54.09-.67.17-.31.36c0,.14,0,.28-.05.42s0,.52-.08.78l0,1.67.06,1.11.14,1.18.12.76.16.48.29.34.76.17,2.16,0,2.15-.24,6.4-.29q3.76-.37,7.53-.72l2.1.06.75.12.42.32.22.41c0,.25.07.5.1.75s.12.77.19,1.16l.12,1.16.1,2.25c.07.53.14,1.05.2,1.57,0,.69,0,1.38,0,2.06l-.09.83c-.09.16-.17.32-.25.49l-.45.36-.66.17-1.34.06-3-.2-1.07,0-5.33.61-4.29.09-1.06.06L125,40.64l-1.13.14-.8.11-.32.23-.17.5v1.05l-.09,1.75v1.11l.09,1.53c0,.24.07.47.11.7l.23.47.28.26.74,0,3.66-.09,1.06-.07,3.57-.48H137l1.06-.06,4.71-.52,1,0,1,0,2.4.16.41.18.28.4c0,.25.07.5.1.75C148.07,50,148.2,51.25,148.32,52.5Z"/><path class="cls-3" d="M197.52,19.89l-.06,1.05c0,3.25,0,6.5.08,9.74.07,1.28.15,2.55.23,3.82,0,.35,0,.7,0,1,.06,2.9.13,5.8.19,8.69,0,.37,0,.75,0,1.12l-.06.53L197.86,47c-.06,1.05-.11,2.11-.17,3.16l.09,3.82-.06.92c-.08.26-.17.53-.26.79l-.52.74-.66.47-.59.21-.92.09-3.36.21-1.06.09-1.65.11-1.06,0-.86-.17-.79-.31-.8-.58-.61-.84-1-1.91c-.2-.28-.41-.56-.61-.85l-2.65-3.19-.68-.79c-.89-1-1.77-2.09-2.66-3.14l-.62-.85-2.42-3.43-.62-.79-2.69-3.16c-.23-.26-.47-.52-.7-.79l-2.57-3.24-.62-.52-.47.21-.17.81c0,1.13,0,2.25,0,3.38l0,1.07c.05,1.13.11,2.25.17,3.37l0,1.08.18,3.77,0,1.08c0,1.26,0,2.52-.08,3.78l.1,1.08.48,2.68.09,1.08c0,.29-.11.58-.17.88l-.44.49L166,58l-.79.17-.52.09-1.12.11-3,.08-1.05,0-2.7.27-1.06.05h-1l-.73-.1-.54-.31-.28-.47-.16-.67-.09-.48c0-.34,0-.68,0-1,0-.76,0-1.51,0-2.26l0-1.09c-.12-1.2-.23-2.4-.35-3.6,0-.36,0-.73,0-1.09q-.1-4.15-.2-8.31l0-1.1.06-3.61c0-.37,0-.73,0-1.09l-.19-4.7c-.13-1.2-.27-2.4-.41-3.6,0-.36,0-.73-.05-1.09.05-1.2.09-2.41.13-3.61l-.11-1.09-.42-3.67c0-.36-.08-.73-.11-1.09,0-.52-.05-1-.07-1.57l0-1c0-.34.06-.68.1-1s.07-.5.1-.75l.19-.48.4-.21.75-.15,2-.16,2.06.1L162,9.45l.82.07.35.26c.14.21.28.41.43.61l3,3,.7.8,2.61,3.21.7.8,2.6,3.27.69.8,2.52,3.32.62.79q1.32,1.61,2.64,3.18c.23.27.46.53.68.8l2.49,3.3.55.46.53.06.47-.34c0-.24,0-.48,0-.73-.17-.93-.34-1.86-.52-2.79,0-.35-.05-.71-.08-1.06l.15-2.86V25.34c-.12-1.35-.23-2.7-.35-4.05,0-.36,0-.71,0-1.07.07-1.35.14-2.7.2-4,0-.36-.05-.71-.08-1.07-.09-.82-.17-1.64-.25-2.46l0-1.66c.06-.29.13-.58.19-.87s.17-.35.26-.53l.48-.26.82-.13h.61l1.16-.06,3.08.24h1.09l2.32-.1,1,.08,1.57.1.76.14.48.21.41.46c0,.31.1.62.14.93l.08.59c0,.37,0,.74.07,1.12l-.12,2c0,.35-.09.7-.13,1.05C197.63,17.3,197.58,18.59,197.52,19.89Z"/><path class="cls-3" d="M247.17,27.6c0,.31,0,.63,0,.95l-.09.94c0,.36-.07.72-.1,1.08-.13.52-.25,1-.38,1.57-.08.33-.16.67-.23,1l-.57,1.25c-.15.29-.29.58-.43.87l-.71,1.19c-.2.27-.41.53-.62.8l-1,1.18-.75.74-.89.74-.89.68-.88.55-.95.55-1.48.6-1,.43-1.15.42-1,.3-1.47.36-1,.18-1,.11-1.07,0-1.74.1-5.59-.06-1.13-.08-1.14.06-1.13.12-.8.13-.21.45c0,.28,0,.56-.07.84-.1,1.45-.2,2.89-.29,4.34,0,.35,0,.69,0,1,0,.65,0,1.3.05,1.94l-.07,1c0,.47-.05,1-.08,1.42,0,.24-.09.48-.13.72l-.21.38-.32.14-.73.13-2.11.14-2.58-.11h-1.06L208.1,57,207,56.94l-1.51,0-.86-.25-.4-.39c0-.26-.09-.52-.13-.78s-.09-.66-.14-1l-.07-1.05,0-7c.08-1.16.17-2.32.26-3.47V41.91c-.09-1.16-.18-2.31-.28-3.47v-1c0-2.66-.11-5.33-.16-8v-1c.08-1.18.17-2.36.25-3.54v-1l-.21-3.48V19.24l.27-3.47v-1c0-.65-.09-1.31-.14-2l.06-1c0-.17,0-.34.07-.52s.09-.48.14-.72.13-.26.2-.39l.34-.32.75,0,2-.09,1.57.11,1,0,4.58.07,4.57.14,4.58.42,4.5.17,2.6,0,1,.11.54,0,1,.24,1.56.45,1.09.37,1.08.43,1,.49,1,.62.88.68,1.2,1.07.8.67.33.4,1.2,1.2.65.86.33.39c.16.26.31.52.46.78s.17.27.26.4c.13.28.26.56.38.84s.21.64.32,1l.24.89.06.45.24.9.12.51c.09.3.17.6.25.9l.36,1.79Zm-20.26,5.63,1.21-.1,1.15-.24.54-.18.95-.49.41-.24.68-.63.27-.37.49-.82.21-.45.29-1,.07-.45,0-1.6-.18-1-.19-.52-.4-.84-.26-.39-.73-.8-.53-.33-1-.55-1.76-.51-1.08-.16-1.56,0-2,.07-3-.27-1,0-.54.05-.75.11-.27.19-.2.45-.15.77c0,.5,0,1,0,1.5.07.8.13,1.6.19,2.4l.06,1c0,1.25,0,2.5,0,3.75l.06.78.2.46.74.27,3.49.32Z"/><path class="cls-3" d="M294.91,57c0,.29.09.58.14.86l-.51.65-.74.26-.87.08-.92,0-1.51-.2-1-.11-3-.14-4.1.06-.85-.28-.37-.51c-.1-.23-.2-.46-.29-.69q-.89-2.62-1.78-5.25l-.43-.64-.59-.15-.79-.1-4-.42-1.06-.05-5-.32c-1.32-.08-2.65-.15-4-.21l-1,0-1,0-3.06-.1-.86.1-.55.3-.42.74-1.68,4.22c-.14.34-.28.67-.43,1l-.75.8-1,.36-1-.09-3.82-.26-1.06,0-4.1.19-.86,0-.79-.39-.51-.71.09-.82.14-.51.42-1,1-2,.42-.94c.59-1.18,1.17-2.35,1.76-3.52l.42-.88,1.83-3.5.43-.94,1.63-3.36.43-.94,1.92-3.47c.15-.29.29-.58.43-.87l2.59-5.06c.68-1.23,1.35-2.46,2-3.68.17-.33.33-.66.5-1L258,20.79l.52-1c.46-.94.93-1.87,1.39-2.81.15-.3.3-.61.44-.91l1.33-2.5.36-.66.7-.33,1-.13,3.15.09,5.31.36,3.14.29,1.15.27.72.55.3.83.83,2.48.36.95,1.55,3,.36.89L282,25.32l.36.89c.35,1.07.7,2.14,1,3.21l.36.89c.44,1,.88,2,1.31,3l.36.88c.43,1,.87,2.07,1.3,3.1.12.29.23.59.35.88l1.16,3.14c.12.29.23.59.35.88l1.84,3.91,1.41,3,.42.88,1.54,3.93C294.16,54.94,294.53,56,294.91,57ZM273.68,38.55c-.08-.28-.15-.55-.23-.82-.42-1.43-.85-2.86-1.28-4.29-.09-.32-.19-.63-.29-.95l-1.17-3.74c-.1-.27-.2-.55-.31-.82l-.65-.48-.87-.23-.75.14-.7.58q-1,2.07-2,4.14L265,33l-1.92,4.09-.24.93c.06.25.11.51.17.76l.73.34.93.17,4.21.2,3.14.34.88-.21.55-.47Z"/><path class="cls-3" d="M342.77,61.87l-.89.15-4.61-.39-3.62-.36-1-.09-3-.12-.86-.07-.57-.28-.48-.51-1.88-2.82-.53-.75-1.89-2.71-.54-.76-1.62-2.87-.54-.76c-.63-.91-1.27-1.81-1.91-2.72l-.42-.52-.39-.21L317.2,46l-2.13-.29h-.87l-.56.31c-.09.26-.18.51-.26.77-.13,1.09-.26,2.18-.4,3.27v1c0,1.12,0,2.24,0,3.36v1c0,.48,0,1-.05,1.44l-.08,1c0,.31-.09.63-.14,1l-.19.7-.35.28-.74.13-1.06-.07-3.15-.38h-3l-1.06-.06-3-.36-.78-.17-.38-.26-.09-.61c0-.29,0-.57,0-.85v-.91c.08-.52.15-1,.23-1.57.05-.32.09-.64.14-1,.16-1.08.33-2.17.49-3.25l.07-1c0-1.09,0-2.18,0-3.27v-1l.15-3.2c0-.33.05-.65.07-1l.42-3.25c0-.32,0-.65.07-1,0-1.09,0-2.18,0-3.28,0-.32.05-.64.07-1,.14-1.09.29-2.17.43-3.25l.06-1,.36-3.19c0-.32.05-.65.07-1,.05-1.09.1-2.18.16-3.27l.06-1v-2c.05-.3.09-.6.13-.91l.1-.35c.08-.26.17-.51.26-.77s.29-.29.44-.44l.83-.11H304l1,0,3.06.41,8.07,1,4.65.25,1.08.12,4.47.72,2.58.29,1.15.19,1,.29,1.39.52,1,.41,1,.47,1.06.47,1,.53.83.57,1.22.91.69.62.62.66.61.78.83,1.28.53.82c.24.4.47.8.7,1.2l.39.87c.13.31.26.62.38.93s.17.65.25,1,.07.64.1.95,0,.63,0,.94v1.3l-.09.93-.17.92c-.08.32-.15.65-.23,1l-.3,1-.37.9-.49.83-.56.82-.68.81-.68.7-.67.64-.67.58-1.16.82-.79.46-1.39.51-.84.33-.91.33-.88.09-.55.13.22.5c.71,1.07,1.41,2.14,2.11,3.21l.53.75,2.11,3.09.6.76L339.87,57l.59.75L342.3,60l.52.69c.09.22.18.45.26.67Zm-18-24.39,1.5-.1.9-.21.84-.34.73-.64.56-.84c.11-.3.23-.61.35-.91l.15-.94,0-1c0-.34,0-.68,0-1s-.12-.61-.19-.91l-.39-.93-.54-.77-.7-.61-.91-.45-1.46-.45-1.07-.23-3.37-.4-1.08-.1-3.46-.16-.81,0-.49.14-.43.32-.12.65c0,.46,0,.92,0,1.38s0,.64,0,1l.06,1c0,.34,0,.68,0,1l-.39,3.27c0,.22,0,.45,0,.67s.07.24.11.36l.45.23.8.19,3.47.54,1.07.1Z"/><path class="cls-3" d="M388.91,65.86l.26.54-.24.25-.24.31-.49.17-.86-.11-3.52-.65-1.05-.12q-2.07-.28-4.14-.54l-1.05-.13-4.23-.3-.78-.15-.54-.46-2-2.46-.51-.74-1.74-2.72-.52-.68c-.76-.84-1.53-1.67-2.3-2.51l-.59-.75-1.92-2.47c-.15-.23-.3-.46-.46-.69l-.27-.55-.44-.22-.43.18-.22.73c-.15,1.31-.31,2.62-.46,3.94-.17,1-.33,2-.49,3.06,0,.31-.08.61-.11.92s-.06.91-.1,1.37c0,.29-.06.57-.1.86s-.11.57-.16.85l-.13.56-.36.2-.8,0-2.06-.09-2-.2-3-.52-1.07,0-3.32-.08-.5-.22-.23-.37c0-.18,0-.35,0-.53s0-.54,0-.81l.1-.93c.07-.48.14-1,.22-1.44.06-.32.11-.65.17-1,0-1,0-2.11.07-3.16l.42-4c.06-.31.11-.62.17-.93l.54-3.15c.05-.31.11-.62.16-.92.14-1.35.29-2.7.43-4,.07-1,.13-2.1.2-3.14,0-.31.06-.62.1-.93.15-1,.31-2.11.47-3.16,0-.31.06-.62.1-.93q.32-3.58.62-7.19c0-.31.07-.61.1-.92l.54-3.1c0-.23.09-.46.14-.69.08-.08.15-.17.23-.26l.69,0,1,.19,2.09.45,1.08.14,3.15.18,1.08.15,3.1.59.74.16.32.22.15.49v.58l-.16.73-.42,1.85c-.06.31-.12.61-.17.91-.05,1-.11,2-.16,3.05,0,.31-.07.61-.1.91-.1,1-.19,2-.29,3l.06.64.52.19.79-.31,2.38-2.18q2-1.61,4.09-3.2l2.39-2.14.76-.58,2.65-1.92.6-.37h.69l3.14.29,1.08.17,4.1.85,2.56.46,1.08.16,2.58.35.73.18.31.27.12.14-.09.15-.61.41-2.89,1.94-.77.56-2.71,2.21-.76.57-2.95,2-.76.58L378.85,38l-.76.59-2.73,2.14-.82.59-1.84,1.07-.81.59-.38.29-.39.41.09.36.4.57,2.12,3.07c.21.26.43.52.65.77l2.6,2.85.58.75,2.23,3,.57.75,2.37,2.91.57.76,2.49,2.85.57.75Z"/><path class="cls-1" d="M143.29,132.82h-.23l-.95,0a5.38,5.38,0,0,1-1.05-.13l-1.54-.28a5.46,5.46,0,0,1-1-.26l-.85-.29a5.38,5.38,0,0,1-.66-.27l-.86-.4a5.54,5.54,0,0,1-1-.56l-.77-.55a4.13,4.13,0,0,1-.42-.31l-.68-.56-.42-.37-.69-.68a6.15,6.15,0,0,1-1-1.22l-.52-.84c-.05-.08-.1-.16-.14-.24l-.55-1a2.69,2.69,0,0,1-.16-.29l-.45-.88q-.18-.37-.33-.78l-.25-.71-.33-.7a6.17,6.17,0,0,1-.43-1.18l-.2-.79-.31-.91a6,6,0,0,1-.28-1.11l0-.17-.25-.75-.12-.39-.28-1a4.69,4.69,0,0,1-.14-.65l-.18-1.08a4.62,4.62,0,0,1-.07-.65l-.2-2.36-.06-.46-.15-1.57c0-.12,0-.24,0-.36l-.11-2.53-.09-1-.15-.81a6.18,6.18,0,0,1-.09-1.36l.19-6.37c0-.08,0-.16,0-.24l.09-1.22,0-1.93a6,6,0,0,1,.14-1.4l0-.2.07-1c0-.17,0-.33,0-.49L126,88.2l.07-.88.12-2.51a1.21,1.21,0,0,1,0-.19l.1-1.46a1.49,1.49,0,0,1,0-.21l.13-1.24,0-.36a5.22,5.22,0,0,1,0-1l.18-1.71a.68.68,0,0,1,0-.14l.2-1.58c0-.24.08-.48.13-.72l.13-.49.15-1.2a1.1,1.1,0,0,1,0-.18l.22-1.45a4.83,4.83,0,0,1,.14-.66l.24-.93.65-3.33c0-.22.07-.43.12-.64l1.21-5c0-.07,0-.13,0-.19l.28-1.08.09-.32.22-.71.1-.3.25-.68.35-1.62a4.58,4.58,0,0,1,.14-.53l.36-1.19.09-.28.38-1.08c.07-.19.15-.38.23-.57l.45-1,.59-1.44c.07-.17.15-.34.23-.51l1.11-2.16,0-.09.51-1a5.54,5.54,0,0,1,.59-.92l1-1.25.14-.25a6.36,6.36,0,0,1,.46-.69l.65-.85a6.15,6.15,0,0,1,.86-.91l.7-.61.12-.11,1.63-1.35.2-.16,1.13-.87a6.86,6.86,0,0,1,.9-.57l1.18-.62a4.64,4.64,0,0,1,.72-.32l1-.38a6,6,0,0,1,.69-.21l1-.26a5.9,5.9,0,0,1,1.46-.18H152a5.66,5.66,0,0,1,1.19.11l1.84.34a5.59,5.59,0,0,1,.71.15l1.3.38a5.81,5.81,0,0,1,.88.32L159,39a5.78,5.78,0,0,1,1.07.63l2,1.48a6,6,0,0,1,1.1,1l.91,1.08.83.91a5.54,5.54,0,0,1,.66.87l1.55,2.42c.1.14.18.29.27.44l.77,1.43a5.54,5.54,0,0,1,.37.83l.56,1.55a5.93,5.93,0,0,1,.24.85c.15.71.29,1.42.43,2.12,0,.15.06.3.08.45.13,1,.26,2.1.38,3.14a5.79,5.79,0,0,1,0,.93l-.07,2.07a6.26,6.26,0,0,1-.11,1l-.07.37v.6a5.83,5.83,0,0,1-.08.83c-.14.92-.28,1.83-.43,2.74a6.26,6.26,0,0,1-.23.95l-.15.45-.09.55a6.73,6.73,0,0,1-.35,1.24l-.35.87-.86,2.67a6.94,6.94,0,0,1-.34.9l-.6,1.25a3.9,3.9,0,0,1-.19.35l-.67,1.32-.2.39-.26.45-.26.65a5.05,5.05,0,0,1-.24.53l-.7,1.41c-.1.21-.21.41-.33.61L163,82.4c-.09.14-.18.28-.28.41L161.86,84a2.56,2.56,0,0,1-.2.26l-.83,1.08c-.05.07-.1.15-.16.22l-.67,1a3,3,0,0,1-.27.35l-1.18,1.46-.34.51-.15.2L157,90.45a5.47,5.47,0,0,1-.49.59l-.53.56-.64.79a5.13,5.13,0,0,1-.68.72l-.94.86-1.33,1.44a5.71,5.71,0,0,1-.72.67l-.83.67c-.72.58-1.49,1.21-2.25,1.85a5.53,5.53,0,0,1-.86.6l-.48.32-.24.25,0,1.69,0,.21a7.12,7.12,0,0,1,.05,1.22l-.07,1.22s0,.08,0,.12l-.06.75,0,.54c.1.74.2,1.48.29,2.22,0,.14,0,.29,0,.44l.07,1.35c.07.56.14,1.12.2,1.68l.23.76.39-.27.6-.49L150,109.8l.74-1,.16-.21,1.23-1.52.07-.09.46-.53.31-.55.08-.13.74-1.25.24-.55c.06-.12.11-.24.17-.35l.6-1.14.21-.38.63-1.11.64-1.53c0-.12.1-.23.16-.35l.47-1L157,98l.47-.88.72-1.75a5.4,5.4,0,0,1,.36-.77l.86-1.54a6.24,6.24,0,0,1,1.06-1.39l1-1a6.14,6.14,0,0,1,4.63-1.77l1.44.07a6.21,6.21,0,0,1,4.16,1.88l1,1a6.27,6.27,0,0,1,1.71,3.83l.08,1.1a6.12,6.12,0,0,1-.17,2l-.25,1a4.5,4.5,0,0,1-.26.81l-.36.92c-.07.17-.15.34-.23.5l-.29.57-.23.65-.09.26-.44,1.27a7.1,7.1,0,0,1-.42,1.08l-.72,1.48-.13.29-.48,1-.09.19-.3.56a6,6,0,0,1-.26.71l-.49,1.09a5.67,5.67,0,0,1-.33.65l-1.5,2.63-.12.21-.69,1.15a4.93,4.93,0,0,1-.36.53l-.2.26-.52.88-.13.22-1.29,2.08a7.57,7.57,0,0,1-.52.74l-.8,1-.61.83c-.09.12-.18.25-.28.36l-1.27,1.52a6,6,0,0,1-.75.76l-.9.78-.22.19-.81.63-.2.16-1.51,1.15-.45.33-.68.45-.78.58-.47.32-1.21.75a5.7,5.7,0,0,1-.69.37l-2,.93a5.84,5.84,0,0,1-.73.29l-1.22.39a6.11,6.11,0,0,1-1.2.26l-1.11.16c-.24.05-.48.09-.73.12l-1,.11C143.72,132.81,143.51,132.82,143.29,132.82ZM143,77.65h0Zm19.88-10h0Z"/><path class="cls-1" d="M167.52,127.94h-1.29q-.3,0-.6,0l-1.2-.13q-.3,0-.6-.09l-.93-.19-.27-.06-.8-.2a6.18,6.18,0,0,1-1.87-.8l-.7-.44a5.3,5.3,0,0,1-.54-.39l-1.44-1.13a6.52,6.52,0,0,1-1.21-1.25l-.51-.71a2.71,2.71,0,0,1-.24-.35l-.5-.78-.23-.38c-.21-.38-.42-.76-.64-1.14-.12-.22-.23-.45-.33-.68-.22-.53-.44-1.06-.67-1.59a6.78,6.78,0,0,1-.3-.9c-.12-.48-.25-1-.37-1.42-.06-.24-.11-.48-.15-.73l-.13-1c-.08-.42-.17-.84-.25-1.26a5.25,5.25,0,0,1-.09-.55c-.07-.6-.13-1.19-.2-1.79,0-.11,0-.23,0-.35l-.09-1.45c0-.19,0-.38,0-.57l0-2.5c0-.17,0-.35,0-.52l.12-1.37a5.52,5.52,0,0,1,.1-.71l.39-2.23.19-1.43c0-.2.07-.39.11-.58l.24-1a5.53,5.53,0,0,1,.24-.79l.2-.54.14-.62a5.82,5.82,0,0,1,.25-.84l2.1-5.56c.08-.19.16-.38.25-.56l.45-.92c.06-.11.12-.23.19-.34l.73-1.38c.06-.12.12-.24.19-.36l.93-1.62a5.14,5.14,0,0,1,.32-.49l1.84-2.57a3,3,0,0,1,.27-.35l.26-.32.55-.75a6.91,6.91,0,0,1,.61-.71l1.22-1.22.72-.84a6,6,0,0,1,.72-.71l1-.85L167,73.71a6,6,0,0,1,.55-.45l1.19-.89a6.36,6.36,0,0,1,1.13-.72l.94-.47.13-.07,1-.44.84-.5.21-.12,1-.57a8,8,0,0,1,.84-.38l1.27-.46.44-.14,2.05-.62a6.39,6.39,0,0,1,1.3-.27l2.59-.26.85-.11a5.34,5.34,0,0,1,.69,0l1.3,0h.29l2.16.07H188l2.48.17.54.07,2.37.38.21,0,1,.2.25,0,1.18.29a8.63,8.63,0,0,1,.86.28l4.29,1.76a6.06,6.06,0,0,1,1.44.83l1.07.76a5,5,0,0,1,.44.32l.76.58a6.17,6.17,0,0,1,.66.6l.65.67a6.24,6.24,0,0,1,1.57,2.87L208,78.2a6.22,6.22,0,0,1,0,2.94l-.34,1.36a6.22,6.22,0,0,1-1.43,2.66l-1,1.16q-.21.23-.42.42l.64-.37a6.22,6.22,0,0,1,3.89-.79l1.2.15a6.22,6.22,0,0,1,3.92,2.12l.8.93a6.26,6.26,0,0,1,1.46,3.36l.11,1a6.17,6.17,0,0,1-.49,3.17l-.37.86a2.56,2.56,0,0,0-.11.24l-.49,1a3.52,3.52,0,0,1-.18.4l-.47,1a5.51,5.51,0,0,1-.49.85l-.31.52-.33.77a2.29,2.29,0,0,1-.1.23l-.37.8c-.09.18-.18.36-.28.53l-.95,1.62c-.06.09-.12.18-.17.27l-.63,1-.26.58-.27.52-.48.83a6,6,0,0,1-.44.67l-1,1.33-.22.32-.5.65c-.32.47-.65.94-1,1.42l-.15.21-.58.78L206,114l-.57.68c-.09.11-.19.21-.29.32-.9.92-1.8,1.87-2.7,2.83a7.1,7.1,0,0,1-.64.59l-.78.62-.21.16-.88.66-.38.25-1.07.68-.18.11-1.17.69-.39.22-.87.44-.59.26-.87.34a6.38,6.38,0,0,1-1.43.36l-1,.13a4.07,4.07,0,0,1-.61.05l-1.15,0a7.84,7.84,0,0,1-1.18-.06l-1.18-.18a4.86,4.86,0,0,1-.55-.1l-.89-.21a6.36,6.36,0,0,1-2.06-.92l-.68-.47a4.91,4.91,0,0,1-.51-.39l-.69-.57-.31-.29-.3.31-.71.68a2.73,2.73,0,0,1-.25.23L179,123.17a6.26,6.26,0,0,1-.57.45l-1.51,1.06a5.79,5.79,0,0,1-.67.42l-1.6.86a4.39,4.39,0,0,1-.44.21l-1.3.58a4.59,4.59,0,0,1-.7.27l-1.82.57a6.42,6.42,0,0,1-1.44.27l-1,.07ZM173,104c0,.28,0,.57,0,.85l.07-.11.38-.63.27-.42.46-.64,1.87-3.06,1.29-2.42,1.15-2.46c.08-.17.17-.34.26-.5l.15-.26,1.18-3.1a6.11,6.11,0,0,1,.26-.86l.52-1.51.16-.6.06-.18.13-.45-.17.13-1,.7L179,89.66l-1.22,1.75-.31.47L176,94.05l-1,2.41c-.07.18-.15.35-.23.52l-.14.28-.33,1.31a5.7,5.7,0,0,1-.16.55l-.35,1c0,.09-.07.18-.11.27l-.09.24c-.12.78-.23,1.55-.35,2.34,0,.13,0,.26-.07.38Zm28.19-14.2L201,91.31c0,.2-.09.41-.15.61l-.1.36c.45-.93.89-1.85,1.34-2.76a6.36,6.36,0,0,1,1.28-1.76l-.46.3a6.22,6.22,0,0,1-1.34.67c0,.17-.08.34-.13.51Z"/><path class="cls-1" d="M200.79,122.13l-.37,0-1.23-.07a6.28,6.28,0,0,1-2.22-.53l-.79-.36a6.25,6.25,0,0,1-2.74-2.4l-.56-.91A6.15,6.15,0,0,1,192,115l-.09-1.17a6.48,6.48,0,0,1,.08-1.59l.2-1.11a.75.75,0,0,1,0-.16l.29-1.43,0-.11.45-2.12a5.47,5.47,0,0,1,.15-.58l.34-1.36c.06-.27.13-.52.21-.78l.46-1.47.1-.5a1.24,1.24,0,0,1,0-.16l.34-1.62a5.66,5.66,0,0,1,.15-.59l.29-.93.06-.19.15-.44.29-1.42,0-.17.1-.45,0-.41A6.08,6.08,0,0,1,196,95l.19-.62.12-.59a6,6,0,0,1,.15-.61l.21-.66.21-.94.09-.35.9-3.41L198,87a4.57,4.57,0,0,1,.16-.61l.18-.57.11-.56a6.28,6.28,0,0,1,.23-.85l.13-.35.09-.44c0-.22.1-.43.16-.64l.26-.92.12-.59,0-.12.4-1.86c0-.22.11-.44.17-.65l.6-2c0-.16.08-.32.13-.48l.18-.55.28-1.4a6.44,6.44,0,0,1,1-2.37l.7-1a6.16,6.16,0,0,1,2.25-1.93l1.35-.67a6.19,6.19,0,0,1,2.11-.62l1.66-.17a6.39,6.39,0,0,1,1.45,0l1.66.22a6,6,0,0,1,1.1.25l1.55.51a6.25,6.25,0,0,1,2.33,1.37l.74.7.25-.14.84-.45.52-.25.58-.24.61-.32a6.28,6.28,0,0,1,1.08-.44l.86-.26.18-.06,1-.25.54-.11,1.36-.24.35,0,1.27-.13a4.62,4.62,0,0,1,.91,0l2.4.09c.23,0,.46,0,.68.07l1.66.26.31,0,1.14.24a6,6,0,0,1,1.26.41l.92.41.45.22.9.49a6.3,6.3,0,0,1,1.35,1l.68.67a6,6,0,0,1,.71.8l.47.66c.08.11.15.22.22.33l.47.74a5.24,5.24,0,0,1,.32.57l.36.73a6.61,6.61,0,0,1,.38.92l.25.82a4.6,4.6,0,0,1,.13.5l.24,1.09a5.12,5.12,0,0,1,.1.54l.14,1.08a6.62,6.62,0,0,1,0,1.18l-.1,1.63a5.87,5.87,0,0,1-.1.83l-.07.4,0,.39a6,6,0,0,1-.11.85l-.13.71c-.05.21-.1.42-.16.63L244,88.3a6.3,6.3,0,0,1,1.82-1.43l1-.5a6.23,6.23,0,0,1,4.26-.51l1.34.32a6.26,6.26,0,0,1,3.29,2l.78.92a6.25,6.25,0,0,1,1.46,4.38l-.05.86a6.36,6.36,0,0,1-.55,2.23l-.35.77a6.53,6.53,0,0,1-.45.82l-.69,1.15-.17.28-.43.67a5.88,5.88,0,0,1-.36.51l-.33.43-.25.4a6.08,6.08,0,0,1-.47.66l-.46.61-.15.24c-.23.34-.45.68-.67,1a6,6,0,0,1-.56,1.07l-.49.77-.18.27-1,1.4-.12.17-.58.79-.33.41-1.57,1.89-.2.23-.58.65-.16.17-1,1-.5.57a7.06,7.06,0,0,1-.67.67l-1.14,1-.41.41a5.51,5.51,0,0,1-.68.6l-.74.57c-.13.1-.26.2-.4.29l-.76.5c-.16.11-.34.21-.51.31-.51.26-1,.54-1.52.81a6.19,6.19,0,0,1-.58.28l-.76.32-.23.09-.85.32c-.2.07-.4.14-.6.19l-.86.23a5.61,5.61,0,0,1-.59.13l-.76.13-.17,0-1,.14c-.2,0-.41.05-.61.06l-.86,0a6.26,6.26,0,0,1-.75,0l-.88-.06a5,5,0,0,1-.86-.13l-.78-.17a4.21,4.21,0,0,1-.48-.12l-.89-.27-.24-.08-.79-.28a5.68,5.68,0,0,1-1.17-.55l-.79-.48a5.83,5.83,0,0,1-.7-.49l-.59-.49a6.71,6.71,0,0,1-.81-.79l-.59-.69a6.09,6.09,0,0,1-.95-1.54l-.4-.9-.12-.3-.3-.8a6.83,6.83,0,0,1-.25-.85l-.35-1.52a6.74,6.74,0,0,1-.19-1.48v-2.2a5.7,5.7,0,0,1,.07-.92l.25-2a5.21,5.21,0,0,1,.13-.79l.29-1.27.06-.23c.27-1,.55-2,.83-3l.25-1.35c0-.11.05-.23.08-.35l.84-3.21c0-.12.07-.23.1-.34l.42-1.22a1,1,0,0,1,.05-.16l.63-1.74.31-1.09-.6.52-1,1.1c-.11.12-.22.24-.34.35l-.5.47-.67.75-.7,1.1c-.1.15-.2.3-.3.43l-.24.31c-.23.46-.46.91-.68,1.37l-.81,2.47-.22,1a1.33,1.33,0,0,1-.05.19l-.37,1.47-.06.21-.32,1.09-.51,2.43c0,.16-.07.31-.11.47l-.79,3.06-.16.73c0,.18-.08.35-.13.52l-.22.69-.37,2c0,.2-.08.4-.14.6l-.16.62-.05.48c0,.23-.07.47-.12.7l-.2.87c0,.2-.1.41-.16.61l-.29.86a6.15,6.15,0,0,1-1.49,2.44l-.56.57a6.11,6.11,0,0,1-1.79,1.28l-.86.41a6,6,0,0,1-1.31.45l-.86.2-.21,0-1.25.25a6.66,6.66,0,0,1-1,.11l-1.45.05Z"/><path class="cls-1" d="M249.78,120.37a6.81,6.81,0,0,1-.78-.05l-1.56-.18c-.23,0-.46-.06-.68-.11l-.88-.19-.15,0-.8-.19a7.18,7.18,0,0,1-1-.34l-.9-.39-.52-.26-.71-.39a5.67,5.67,0,0,1-.66-.42l-.8-.58a7,7,0,0,1-.66-.56l-.77-.75-.76-.66a6.22,6.22,0,0,1-1.14-1.32l-.5-.76a6.22,6.22,0,0,1-.32-.56l-.39-.76a6.24,6.24,0,0,1-.36-.84l-.8-2.15c0-.08-.06-.16-.08-.23l-.3-.86a6.72,6.72,0,0,1-.29-1.33l-.1-.84c0-.07,0-.13,0-.19l-.09-1c0-.18,0-.45,0-.64v-.86l-.05-.47a6.56,6.56,0,0,1,0-.76l0-.82c0-.22,0-.45,0-.68l.23-1.94c0-.16,0-.31.07-.47l.23-1.21c0-.15.07-.31.11-.46l.22-.81.15-.47.21-.61a5.5,5.5,0,0,1,.25-.88l.33-.9.08-.2.34-.82c0-.08.07-.15.1-.22.32-.7.65-1.39,1-2.08l.3-.69a5.6,5.6,0,0,1,.44-.84c.3-.47.6-1,.91-1.42a1.37,1.37,0,0,1,.13-.2l.56-.8.47-.78a5.79,5.79,0,0,1,.41-.6l.7-.88a5.59,5.59,0,0,1,.57-.63l.95-.94,1.13-1.18.4-.37.68-.59.38-.31.61-.44,1.23-1a4.76,4.76,0,0,1,.74-.53l2.44-1.48a3.62,3.62,0,0,1,.43-.24l1.63-.82.12-.06.79-.38a5.73,5.73,0,0,1,.81-.33l.93-.3.23-.07.84-.23,1.54-.52,1-.35a6.41,6.41,0,0,1,.93-.25l2-.37.84-.17c.23-.05.45-.08.68-.11L264.9,71l.51,0h4.24l.54,0,2.62.23c.22,0,.43,0,.64.09a2,2,0,0,1,.16-.24l.51-.77a3.91,3.91,0,0,1,.3-.41l.9-1.12.34-.54.14-.21.35-.51.23-.31.52-.72a4.92,4.92,0,0,1,.28-.45l1.06-1.51a2,2,0,0,1,.17-.23l.42-.55c.56-.8,1.14-1.6,1.71-2.4.1-.14.21-.28.32-.41l.68-.8.94-1.29a1.77,1.77,0,0,1,.16-.22l.53-.67.1-.11.81-1c.13-.18.27-.35.42-.52l1.62-1.81a6.07,6.07,0,0,1,.59-.65l2-1.9a6.23,6.23,0,0,1,2.15-1.36l1.29-.48a6.3,6.3,0,0,1,1.44-.34l1.45-.16a6.18,6.18,0,0,1,1.55,0l1.23.17a3.86,3.86,0,0,1,.49.09l1.09.24.39.1,1.2.35a4.72,4.72,0,0,1,.53.18l1.77.65a6.25,6.25,0,0,1,1.47.77l.77.54A6.21,6.21,0,0,1,307.94,56l.21.69a6.25,6.25,0,0,1-.69,5.14L306.72,63a5.76,5.76,0,0,1-.9,1.18l-.68.71a2.39,2.39,0,0,1-.23.22l-.6.62-.47.61c-.11.14-.22.27-.34.4l-.69.76-.55.73-.13.16-.71.88c-.72.86-1.39,1.68-2.06,2.49l-.64.86-.33.4-.67.75-.37.5-.16.21-.43.53c-.38.52-.77,1-1.15,1.57-.1.14-.21.28-.32.41l-.57.66-.34.5-.12.17-1.64,2.29-.19.37a6.84,6.84,0,0,1-.59.92L291,83.07l-.13.18-.81,1.13-.18.25-.27.44-.09.18-.61,1.16a7.24,7.24,0,0,1-.41.71l-.47.7-.17.24-.53.76-.18.38a1.62,1.62,0,0,1-.1.18l-.57,1.16a5.76,5.76,0,0,1-.38.69l-.26.41-.34.71a4.59,4.59,0,0,1-.26.49l-.6,1-.09.15-.45.82-.16.37L283.34,97c0,.15-.11.31-.17.46-.2.46-.39.91-.57,1.36l1-.87.33-.32.37-.42.22-.24.52-.52,1.34-1.6c.12-.14.25-.28.38-.41l1.14-1.09,1.23-1.41a6.19,6.19,0,0,1,2.48-1.7l1.49-.55a6.32,6.32,0,0,1,3.5-.22l1.43.33a6.26,6.26,0,0,1,3.63,2.38l.68.93a6.22,6.22,0,0,1,1.09,4.87L303.25,99a6.15,6.15,0,0,1-1.37,2.86l-.76.91c-.1.12-.2.23-.31.34l-.73.75-.16.17-.7.67-.72.82a6.81,6.81,0,0,1-.72.7l-.23.19-1.38,1.51a5.39,5.39,0,0,1-.59.58l-.7.6-1.57,1.5c-.44.42-.86.82-1.27,1.23l-.31.29-.6.52-.09.07-1.2,1a6.26,6.26,0,0,1-.81.63l-.71.45L288,115l-.43.24-.47.35a3.43,3.43,0,0,1-.33.24l-.27.18-.61.48a6.53,6.53,0,0,1-.74.52l-.78.45a5.26,5.26,0,0,1-.71.36l-.87.38-.25.1-.73.29-.29.1-.83.29a5.91,5.91,0,0,1-.69.19l-2.75.63c-.2,0-.4.08-.6.11l-.94.13a6.4,6.4,0,0,1-1.16,0l-.55,0-.66,0a7.45,7.45,0,0,1-1.16-.06l-.93-.14a5.59,5.59,0,0,1-.59-.11l-.94-.23a6.25,6.25,0,0,1-1.25-.46l-.83-.4-.48-.26-.83-.5c-.22-.14-.44-.29-.65-.45l-.61-.49-.41-.35-.7-.67a6,6,0,0,1-.71-.79l-.83.62-.21.15-.9.61-.93.67-.43.28-.86.52a5.45,5.45,0,0,1-.72.37l-.77.35a6.6,6.6,0,0,1-1,.35l-1,.26-.44.11c-.76.14-1.51.29-2.26.45h-.1l-1,.19-.52.08-.87.09C250.24,120.35,250,120.37,249.78,120.37Zm4.72-20.27-.1.81a.5.5,0,0,0,0,.12l.14-.11,1.26-1.18c.11-.11.24-.21.36-.31l.46-.39.46-.57.11-.13.56-.64.72-.91a5.59,5.59,0,0,1,.61-.68l.36-.35.6-1,.21-.35,1.07-1.69.12-.18.65-1,.61-1,.7-1.29-.64.34-.61.42-.38.23-1.35.8-.73.56-1.12,1-.17.18-.34.44-1.31,1.76-.24.31-.11.14-.27.58a2,2,0,0,1-.1.21l-.33.67c-.06.13-.13.26-.2.38l-.14.24c-.17.49-.33,1-.49,1.48-.06.17-.12.33-.19.49l-.1.23Zm-7.59-14.49h0Z"/><path class="cls-4" d="M161.78,66.16c-.12.35-.23.71-.34,1.06-.17.62-.34,1.24-.52,1.86l-.3,1.28c-.17.44-.35.87-.53,1.3s-.27.55-.4.83l-.39,1-.41.83-.36,1.06c-.1.24-.21.48-.32.71l-.39.95-.6,1.09-.81,1.23-.84,1.13c-.12.2-.23.41-.35.62l-.63,1-1.23,1.66-.54.88-1,1.54-.69.79L150.35,88l-1.11,1.1c-.49.59-1,1.18-1.48,1.78l-.83.73c-.76.68-1.52,1.38-2.28,2.07l-.76.5-.84.77L142,96.23c-.2.41-.4.81-.61,1.22s-.19.69-.28,1l0,1.34c0,.74.05,1.47.08,2.21,0,.23.09.47.14.7V104l0,1.12.12,1.21c.15.83.31,1.67.45,2.5.06.53.12,1,.17,1.58.14.8.28,1.59.41,2.39.15.42.29.85.43,1.27l.23.69c.13.39.27.77.4,1.16l.59,1,.56.85.74.68.92.39.89.14,1.07,0,1.78-.46.82-.34.91-.61c.4-.31.8-.62,1.21-.92l1.09-1,.78-.93,1-1.21.86-1.29,1.17-1.59.77-1c.19-.36.38-.71.56-1.07l.38-.67c.18-.36.37-.71.55-1.06l.36-.9.54-1.16.37-.65.55-1.15c.22-.62.45-1.24.68-1.85.15-.34.3-.67.44-1l.54-1.12.42-1.09q.21-.61.42-1.2c.26-.54.53-1.07.79-1.59l1-1h1.43l1,1,.12,1.08-.21,1-.33.94-.45,1c-.11.35-.22.71-.32,1.07l-.35,1c-.08.31-.15.63-.23,1s-.3.66-.46,1-.23.58-.35.87l-.45,1c-.19.38-.37.77-.56,1.15-.05.2-.11.4-.16.61l-.45,1.14-.57,1-.94,1.85-.66,1.22-.39.56-.67,1.24-.57,1c-.26.46-.51.92-.76,1.39s-.59.79-.89,1.19l-.68,1c-.19.25-.39.5-.58.76l-.68.91-.9.85-.79.71-.9.73-.78.72-.79.58-.89.75-1.18.83-2,1.06-1.19.45-1.11.18-.6.17-1,.15H144l-.83-.15-.94-.12-.86-.27-.88-.39-.81-.54L139,125l-.75-.69-.58-.87-.61-1-.5-.88-.42-1-.54-1c-.12-.35-.23-.7-.34-1l-.48-1.16-.15-.72c-.18-.43-.35-.85-.52-1.28l-.36-1.06c-.08-.36-.17-.72-.25-1.08l-.15-1.12c-.06-.41-.12-.82-.17-1.24l-.18-.72c-.09-.53-.17-1.07-.26-1.6-.1-.92-.21-1.83-.31-2.74l-.24-1.48-.27-1.09,0-1.14-.06-1.26-.15-4.18c0-.51,0-1,0-1.52l-.18-2.26c0-.21.07-.43.1-.65,0-.5,0-1,0-1.52,0-.26,0-.52.08-.77,0-.64,0-1.27.05-1.91s0-1.09,0-1.63c0-.38,0-.76,0-1.14s0-1,0-1.51L131.8,82l-.09-.87c0-.59.07-1.18.1-1.77s.08-1.09.13-1.64c.06-.3.11-.6.17-.9,0-.54.09-1.09.13-1.63s.11-1,.16-1.52.16-.76.25-1.14c.17-1.1.35-2.19.52-3.28,0-.26.05-.51.08-.76.11-.59.23-1.17.35-1.76l.42-2c.1-.5.19-1,.28-1.5l.24-1.13c.07-.26.14-.51.2-.76s.25-.76.37-1.14c.12-.71.25-1.41.37-2.12l.33-1.26c.11-.38.23-.76.35-1.13s.31-.77.47-1.15c.2-.55.39-1.1.59-1.64.35-.77.7-1.53,1-2.3l.48-1,1.16-1.69.33-.65.62-.91.67-.68,1.55-1.48,1.08-1,1.13-.7,1-.45,1-.32,2.14-.13,1.27.18.74.09,1.3.31,1.1.46L155.89,44l.87,1,1.18,1.22,1,1.46.78,1.09.87,1.45c.22.53.44,1,.65,1.57.2.73.38,1.45.57,2.16.2,1.08.4,2.15.59,3.21l.06,2.13-.12.94c0,.39,0,.78,0,1.17-.08.94-.17,1.87-.26,2.8l-.25.94C161.85,65.47,161.81,65.81,161.78,66.16ZM142.7,71c-.18,1.7-.36,3.41-.55,5.12v1.08l-.12,1.1c-.05.53-.09,1-.14,1.58l-.3,2.58c0,.41-.07.82-.1,1.23,0,.24,0,.48,0,.72,0,.41-.07.81-.1,1.22s-.09.75-.13,1.12,0,.81,0,1.21l.4.66.63-.58,1-1.12q2-2.78,3.93-5.45l.42-.88c.14-.33.27-.66.4-1s.33-.75.5-1.12c.12-.17.25-.34.37-.52.17-.37.33-.74.49-1.11l.61-1.12.57-1.23c.19-.45.37-.9.55-1.34l.39-1,.29-.84c.14-.29.27-.57.41-.85l.51-1.92c.07-.4.13-.79.2-1.19.06-.24.13-.48.19-.72.06-.4.13-.79.19-1.19s.15-.72.22-1.07,0-.71,0-1.06l.09-1.08,0-1.3.15-1.32c0-.44,0-.88,0-1.32s.09-.89.13-1.33-.13-.8-.19-1.2-.11-.72-.17-1.08c-.2-.76-.41-1.52-.62-2.29l-.49-1-.63-.95-1-.57-1-.2-1,.31-.85.91-.64.78-.41.76c-.12.3-.25.59-.38.89l-.34,1c-.25.63-.5,1.25-.74,1.88l-.33,1.12c-.07.37-.13.74-.2,1.11s-.17.65-.25,1l-.21,1.11c-.08.33-.16.66-.25,1s-.15.74-.22,1.11-.08.65-.13,1-.1.89-.16,1.34l-.3,1.83c-.07.37-.15.74-.23,1.1Z"/><path class="cls-4" d="M210.16,92.8l-.18.49c-.14.34-.29.67-.44,1l-.46.73-.35.81c-.12.3-.24.61-.35.91l-.36.82-.9,1.69c-.16.24-.31.49-.46.74l-.46.86-.36.85-.45.87-.56.79-.56.9-.56.8-1,1.61c-.18.28-.37.55-.56.83l-.57.72-2.68,3-.78.68-.87.71-1.08.74-1.18.78-.88.49-.89.4-1,.18-1.19.1-1.2-.12-.89-.18-.71-.45-.7-.56-.71-1-.72-1.13c-.11-.32-.21-.65-.32-1l-.33-1.29c0-.48-.09-.95-.14-1.43l0-1.11c0-.48,0-1,.05-1.43s0-.89.05-1.32l-.31-.17c-.16.28-.32.56-.47.84-.32.63-.63,1.28-.94,1.92l-1,1.74-.58.9c-.16.29-.32.59-.49.88s-.39.61-.58.91-.32.6-.49.9l-.69.84c-.2.27-.4.54-.59.82l-.7.84-.7.75c-.27.25-.54.5-.8.76L176,117.35l-1.51,1.18-1.62,1-1.32.68-1.83.68-1,.11-1.23,0L166.2,121l-.93-.15-.82-.17-.74-.44-1.49-1.11-.54-.72-.57-.85-.69-1.18c-.24-.55-.48-1.1-.73-1.64l-.42-1.47c-.07-.39-.13-.78-.2-1.16l-.33-1.47c-.09-.62-.18-1.24-.28-1.85s-.09-1-.14-1.5,0-.79,0-1.18l-.06-1.52c0-.47.05-1,.07-1.42s.13-.8.19-1.2.11-1,.17-1.42.09-1,.14-1.53c.06-.36.13-.72.2-1.07s.21-.65.31-1,.13-.71.2-1.06c.63-1.94,1.26-3.85,1.88-5.75.14-.32.28-.64.41-1s.3-.56.44-.84l.42-1c.28-.56.57-1.12.86-1.68l.54-.84L165.25,83l.36-.48.63-1,1.33-1.46.82-1.07,1.06-1,1.33-1.32.78-.61.67-.6.91-.5,1.22-.64,1.08-.72,1-.61,1.23-.51,1.25-.4,1-.39,2.66-.36.95-.15,1.29-.07H187l2.47.1,2.39.31,1,.16L194,72l4.39,1.65.79.56.77.47.78.57.68.66.3,1.07c-.09.46-.18.92-.28,1.39l-1,1.22-1.05.75-.8.14-.84-.24-.87-.54-1-.44-.87-.45-.75-.25-.87-.35-1-.34-.85-.16-1.82-.29-1.08-.24-1.07-.13-2.1.14-.72.15-1,.18-1.33.41L180,79.11l-1,.61-1,.71-.67.59-.77.61c-.23.19-.45.39-.67.59l-.66.71-.75.82c-.12.15-.24.31-.37.46-.2.31-.41.62-.62.93l-.54.82c-.15.26-.29.53-.43.8-.36.55-.73,1.09-1.09,1.65-.14.27-.29.54-.44.81l-.42.93-1,2.75c-.14.32-.29.63-.43.94l-.42,2c-.11.35-.21.7-.32,1.06l-.33.94c-.11,1-.23,2-.35,3.09-.07.38-.14.77-.22,1.16,0,1,0,2-.07,3.09s.15,2.11.22,3.18c.06.37.12.75.17,1.13s.25.64.37,1,.31.55.46.83l.56.82.65.57.94.27,1.24,0,1.33-.4.91-.54,1.6-1.25,1.39-1.65.58-.8.69-.8c.19-.3.38-.6.58-.9l.47-.86.57-.88.47-.85,1-1.81.46-.84,1.36-2.78.54-1.25c.2-.49.41-1,.61-1.45l.36-.68c.34-1,.67-1.9,1-2.83l.33-1c0-.24.09-.49.14-.73s.21-.65.32-1,.15-.56.23-.84l.21-.94.3-1.15c.14-.7.27-1.39.4-2.07.1-.39.19-.77.29-1.15s.13-.69.19-1,.34-.64.52-1l1-.59.91-.26.93,0,1,.13,1.71.68.87.44.46.56.18.88c-.07.27-.15.54-.23.81s-.08.6-.11.9-.15.61-.23.91c-.08.6-.17,1.21-.25,1.81-.08.31-.15.61-.23.91s-.09.55-.14.82l-.46,1.84c0,.34-.09.68-.13,1l-.06.62c-.07.41-.14.82-.22,1.23s-.09.62-.14.94c-.1.58-.2,1.18-.3,1.77-.07.42-.15.84-.23,1.27s-.09.7-.14,1l-.15,1.17c-.07.53-.15,1.07-.22,1.61s-.15,1.22-.23,1.84,0,1.07,0,1.62.09.92.13,1.38l.52.79,1,.39,1.48-.12,1.17-.62.87-.67,1.34-1.26.66-.83c.38-.51.75-1,1.13-1.52s.74-1.06,1.12-1.58.61-1,.92-1.54l.45-.86.55-.87c.06-.21.12-.42.17-.62l1.45-2.53c.12-.27.24-.54.35-.81l.45-.82c.59-1.36,1.17-2.69,1.76-4l.86-.54,1.18.12.83.9c.05.31.09.63.14.94-.12.29-.23.59-.35.88S210.3,92.47,210.16,92.8Z"/><path class="cls-4" d="M224.39,76.83l-.81.37-.7.38-.7.47-.8.57-.69.57-1.58,1-.68.49c-.23.19-.46.38-.68.58l-.67.66-1.15,1.35-.66.68-1.13,1.35c-.31.52-.62,1-.92,1.55l-.56.79L211.59,90c-.31,1.07-.62,2.14-.93,3.23l-.24,1.26c-.11.5-.21,1-.32,1.49s-.23.86-.34,1.3l-.48,2.72c-.11.45-.22.89-.34,1.34s-.22,1-.34,1.56l-.24,1.37c-.09.32-.17.64-.26,1s-.17.92-.25,1.39-.11.78-.16,1.18l-.27,1.1c0,.33,0,.65-.07,1s-.12.59-.17.89l-.27.92-.58.63-.87.45-.87.25-1.27.31-1.47.12-1.28,0-.79-.33-.6-.91-.12-1.2c.06-.38.11-.76.17-1.13l.27-1.47c.08-.44.17-.89.25-1.33l.18-1c.08-.34.17-.67.26-1s.11-.64.17-1,.17-.58.26-.87.17-.65.26-1,.11-.63.16-1,.11-.56.17-.84l.15-.93.26-.95c.08-.28.17-.56.25-.84.11-.61.21-1.22.31-1.83,0-.27.11-.54.16-.81s0-.6,0-.9.16-.61.25-.91l.15-.9.24-.9c.07-.4.15-.79.23-1.19s.21-.86.31-1.29l.39-1.77.15-.78c0-.3.09-.59.14-.88l.24-.88c0-.29.09-.59.13-.88s.17-.52.25-.78.09-.58.14-.88l.24-.87.21-1.27.21-1.16c.05-.3.1-.59.14-.88l.48-1.76c.05-.27.09-.53.14-.79l.24-.88c.1-.59.19-1.18.28-1.77l.65-1,1.29-.72,1.65-.22,1.67.17,1.58.47,1.08,1c.08.38.17.77.25,1.15s-.1.64-.16,1-.11.45-.17.67l-.27.86c-.05.29-.1.58-.16.86l-.27.77-.16.85c-.09.29-.18.57-.26.86s-.11.57-.16.85,0,.38-.08.57l.11.09.38-.48.57-.68.47-.67,1.15-1.35.69-.58,1.28-1.06.69-.58,1.3-1.24,2-1.52.82-.47.82-.38.83-.47.83-.28.94-.28,1.36-.27,1.26-.18,2.41,0,1.67.22,1.15.21.94.39.93.48.7.66c.17.22.33.44.5.65l.49.75.39.73.27.82.27,1.09c.05.36.11.73.16,1.09l-.06,1.7c0,.27-.09.53-.13.8s0,.54,0,.8l-.12.72c-.08.26-.16.53-.23.8s-.15.59-.22.89-.15.35-.22.53-.21.59-.32.89-.21.77-.32,1.16-.27.89-.41,1.34-.27.77-.41,1.16l-.3.81-.3,1.17-.39,1.54c-.13.48-.26,1-.38,1.45s-.25.86-.38,1.29l-.18.83c-.06.21-.13.43-.19.65l-.18.83-.27.85-.18.75c-.18.85-.35,1.7-.52,2.56,0,.29,0,.58-.07.87l.06,1.73.42.75.7.45.88,0,.87-.33.87-.43.77-.51.68-.5.76-.6,1.26-1.26.48-.67.58-.75.48-.66.69-.74.48-.65.6-.83.89-1.36.61-.81.31-.45.6-.8.52-.8.84-1.41.42-.79.33-.7.33-.79.54-.69.95-.51,1.35.29.8.89,0,.87-.34.78c-.14.23-.29.46-.43.7l-.43.78c-.14.24-.29.47-.43.7l-.53.7-.42.71-.62.79c-.1.18-.2.36-.31.54-.34.53-.68,1.07-1,1.61-.07.19-.14.37-.2.55s-.34.54-.5.81c-.34.49-.66,1-1,1.47l-.59.84-.39.47-.58.75c-.23.28-.45.57-.68.86l-.58.67-1,1.17-.57.69-1.34,1.21-.57.61-.76.63-.77.53-1.53.89-.77.35-.86.36-.87.26-.78.16-1,.17-.88.07-.88,0-.78-.15-.89-.23-.79-.24-.8-.45-.6-.47-.61-.66c-.14-.3-.29-.59-.43-.89s-.21-.52-.32-.78-.15-.6-.23-.89-.14-.53-.22-.79c0-.73-.05-1.45-.08-2.17l.15-1.28c0-.33,0-.65.07-1s.17-.85.25-1.27c.26-1.07.52-2.12.78-3.17.08-.54.16-1.07.25-1.6s.23-1.07.35-1.59l.36-1.49c.12-.4.24-.81.37-1.21s.18-.55.28-.83.25-.8.37-1.2.25-1,.38-1.46.19-1,.28-1.45l.39-1.19.39-1.63c0-.27.07-.54.1-.81.14-.58.27-1.15.41-1.73,0-.27.07-.54.11-.82s-.13-.6-.2-.91l-.6-.91-.92-.82-.92-.28-.92-.09-.91.1Z"/><path class="cls-4" d="M248.88,79.94l.78-.59,1.36-1.2,2.39-1.5.8-.41.92-.49.81-.41.91-.32,1-.3,1.74-.63,1.05-.39,2.08-.42.94-.22,2.08-.23,1,0,1.15,0,2.1,0,2.67.17,1.5.27,1.27.26.81.15.75-.21.57-.57.36-.76,1-1.51c.11-.23.23-.45.35-.68s.33-.5.49-.75l1.11-1.42.51-.84c.12-.17.23-.34.34-.51l.64-.83.37-.68c.34-.51.68-1,1-1.52.16-.23.33-.45.49-.67L286,60.11c.27-.34.54-.67.82-1,.34-.51.69-1,1-1.52l.51-.67.66-.83.35-.51,1.3-1.48.51-.67,1.39-1.36.63-.65,1.22-.46,1.4-.16,1.23.18,1.09.25,1.2.35.71.28,1.21.44.8.55c.09.24.18.49.26.73l-.36.65-.39.74-.63.7-.63.62-.5.64-.52.73-.82,1-.7,1-.67.89-2,2.59-.7,1-.83,1-.52.74-.5.65-1.21,1.73c-.28.32-.55.64-.82,1l-.53.82-1.87,2.72c-.13.25-.26.5-.38.75s-.33.43-.49.65-.34.49-.5.74l-.49.65-.49.74-.48.65-.37.75-.35.67c-.12.25-.24.5-.37.75l-.48.73-.46.65-.48.74-.35.75-.34.66-.35.75-.46.74-.5,1.07c-.21.36-.42.72-.62,1.08l-.3.49-.47.91-.32.75c-.12.33-.24.67-.35,1l-.36,1.09-.93,2.26c-.06.25-.12.5-.19.76s-.2.5-.29.75l-.33,1.1c-.1.34-.21.67-.31,1s-.12.51-.17.77-.19.51-.29.76-.11.52-.17.77,0,.52-.05.78l.06.87c0,.38,0,.75,0,1.13s.17.71.26,1.06.2.54.29.8l.63.56.87.3,1,.14.9-.13,1-.2.93-.38c.71-.42,1.43-.84,2.16-1.25.28-.19.57-.37.86-.55.42-.38.85-.75,1.28-1.12s.87-.85,1.32-1.28l1.87-1.57.69-.63.57-.64.72-.71L292.6,94l.73-.71c.2-.18.4-.36.59-.55l.63-.71.78-.87c.49-.19,1-.37,1.5-.55l1.49.3.73.92c-.06.36-.13.73-.2,1.09l-.81,1-.78.78-.91.86c-.31.34-.62.68-.92,1l-.58.46q-.9.94-1.77,1.89l-.84.7c-.6.55-1.2,1.1-1.79,1.66l-1.35,1.27-.65.55-.77.63-.64.56-.74.47-.84.47-.86.63-.48.32-.84.65-.82.48-.91.39-.79.31-.9.31L277,109l-1,.14-.86,0-1,0-1-.12-1-.2-.84-.38-.84-.48-.63-.47c-.25-.21-.49-.43-.73-.65l-1.05-1.28-.41-.73-.31-.81c-.07-.24-.13-.48-.2-.72-.09-.8-.18-1.6-.26-2.4l.06-1.67-.22-.1-.55.6-.57.69c-.33.45-.66.92-1,1.38-.19.2-.37.41-.55.61l-.64.61-1.16,1.24-.62.53-2.18,1.62-.91.65-1,.74-.91.57-.8.38-1,.3q-1.16.24-2.31.51l-1,.21-.89.12-.81-.07-.9-.07-.91-.18-.81-.16-.91-.36-.71-.37-.82-.55-.93-.84-.92-.74-.52-.75c-.15-.25-.29-.5-.43-.75s-.22-.57-.32-.85c-.22-.5-.43-1-.64-1.5-.11-.27-.22-.55-.32-.83s-.09-.56-.13-.84l-.12-1.11,0-1.21c0-.27-.07-.55-.11-.82s0-.55,0-.83.05-.6.08-.91l.09-1.09c.07-.39.13-.78.2-1.17s.13-.54.2-.81l.3-.9c0-.18.07-.36.1-.54s.2-.59.31-.89.2-.54.31-.8c.31-.71.62-1.42.94-2.12l.33-.8.85-1.4.65-1,.56-1c.21-.29.44-.58.66-.87s.29-.29.43-.43l.67-.69,1.11-1.21Zm22.8-2-2.2-.05-1,0-1,.11-1.15.11-.7.14-1.16.29-1,.21-1,.29-.93.4-.81.4-.82.48-.82.58c-.55.32-1.08.65-1.62,1l-.68.49-.7.59-1.37,1.26-.57.59-.57.77c-.46.62-.92,1.25-1.37,1.88l-.55.69c-.11.23-.22.46-.34.69s-.22.52-.34.78l-.33.69c-.14.27-.29.53-.44.79-.22.7-.44,1.4-.65,2.11-.11.26-.22.52-.32.79s-.15.77-.22,1.16-.07.71-.1,1.07-.07.6-.11.89l.21,1.17.21,1.45c.07.4.15.79.22,1.19l.31.82c.18.21.35.43.52.64l.62.55.72.55.92.36,1.23.19,1.22-.1,1-.36.62-.27.93-.45.72-.44c.41-.36.83-.71,1.25-1.06l.74-.71.64-.61.74-.6c.18-.2.37-.4.55-.61l.55-.69.66-.76c.26-.35.53-.69.79-1l.78-.76c.16-.22.32-.45.47-.68s.32-.5.47-.76.25-.45.37-.68.32-.5.49-.75.4-.68.61-1l.62-.91.5-.76.39-.66c.62-1.18,1.25-2.35,1.9-3.51l.57-1.09c.4-.89.81-1.79,1.22-2.68.16-.36.32-.73.49-1.09l.45-.83.36-.93c-.09-.27-.17-.53-.25-.8l-.77-.39Z"/></svg>